<svg xmlns="http://www.w3.org/2000/svg" width="2147" height="496"><path fill="#2B81A7" d="M591 257c10.155 20.31-5.179 63.508-12 84-20.228 60.097-62.8 107.872-119.148 136.605-13.776 6.605-28.231 12.125-43.114 15.606-2.855.584-2.855.584-4.738 2.789-1.902.246-1.902.246-4.265.24l-2.71.009-2.983-.022h-3.133c-3.43 0-6.861-.016-10.292-.032l-7.12-.008a8126 8126 0 0 1-18.772-.05c-6.38-.02-12.762-.03-19.143-.04-12.527-.02-25.055-.055-37.582-.097l-1-3-2.797-.281c-35.04-5.061-70.452-28.417-95.59-52.281a115 115 0 0 0-5.742-5.024c-2.3-1.934-4.205-3.75-6.121-6.039-2.815-3.312-5.725-6.507-8.687-9.687-12.646-13.924-12.646-13.924-13.418-19.04.492-3.67 2.023-4.929 4.636-7.523l1.395-1.407c1.548-1.553 3.113-3.088 4.678-4.624q1.669-1.664 3.335-3.332c3.023-3.02 6.06-6.024 9.1-9.025 3.183-3.148 6.35-6.31 9.52-9.47a8953 8953 0 0 1 18.069-17.948c8.83-8.75 17.641-17.517 26.452-26.286l1.963-1.954 3.879-3.86A8060 8060 0 0 1 267 303.97q3.54-3.51 7.077-7.026a2596 2596 0 0 1 3.267-3.236c5.275-5.218 10.462-10.392 15.031-16.256 2.148-1.919 3.78-2.23 6.624-2.451 2.43 1.59 2.43 1.59 4.875 3.938l2.43 2.277a142 142 0 0 1 5.84 6.429c3.897 4.469 8.032 8.66 12.238 12.836l2.355 2.352q3.69 3.68 7.387 7.356l4.98 4.966q4.565 4.553 9.134 9.1 6.802 6.77 13.562 13.582l5.512 5.539 2.763 2.79c4.622 4.637 9.297 9.11 14.268 13.373 2.09 1.845 3.91 3.842 5.719 5.962 4.11 4.666 8.419 9.1 12.812 13.5l1.985 1.998c.62.62 1.242 1.239 1.882 1.877l1.683 1.68c3.026 2.793 3.026 2.793 6.958 3.355 3.384-1.177 5.022-2.889 7.492-5.473l2.629-2.734c2.67-2.89 5.29-5.81 7.828-8.816 2.125-2.403 4.385-4.633 6.668-6.887q3.941-3.902 7.875-7.812l2.066-2.042c3.379-3.362 6.643-6.764 9.754-10.376A76 76 0 0 1 468 335.5c3.819-3.356 7.15-6.852 10.422-10.734 2.277-2.548 4.956-4.58 7.578-6.766a152 152 0 0 0 3.105-3.574c4.169-4.822 8.666-9.271 13.207-13.738q2.404-2.366 4.801-4.739l2.119-2.083c2.53-2.67 3.768-4.114 3.768-7.866l-5-2c2.298-3.447 3.022-3.605 6.842-4.746l3.056-.93 3.32-.976 3.418-1.035c3.618-1.094 7.24-2.173 10.864-3.25q5.391-1.615 10.778-3.24 3.354-1.012 6.712-2.007c5.74-1.723 11.316-3.628 16.852-5.926 3.305-1.363 6.652-2.54 10.033-3.702l1.93-.694c5.945-2.025 5.945-2.025 9.195-.494m-44.55 45.355-1.763 1.832c-.627.648-1.255 1.295-1.902 1.961L541 308l-2.375 2.313c-2.408 2.465-4.705 4.992-7 7.562a215 215 0 0 1-9.937 10.402c-1.862 1.9-3.585 3.888-5.313 5.91-2.582 3-5.282 5.339-8.375 7.813a187 187 0 0 0-5.156 5.902c-2.18 2.48-4.492 4.781-6.844 7.098q-2.69 2.654-5.375 5.313l-2.71 2.675c-2.118 2.14-4.093 4.361-6.048 6.649-5.295 6.111-11.144 11.697-16.897 17.372-6.934 6.807-6.934 6.807-13.47 13.991-5.138 6.014-10.903 11.458-16.53 17.01-5.397 5.33-10.732 10.66-15.648 16.449-1.054 1.228-2.178 2.397-3.322 3.541-4.02-.283-6.001-1.503-8.801-4.314-.717-.709-1.433-1.418-2.17-2.15l-2.336-2.373-2.495-2.488c-2.723-2.72-5.431-5.455-8.14-8.19l-5.666-5.678a5336 5336 0 0 1-11.865-11.924 7155 7155 0 0 0-15.21-15.276q-7.259-7.276-14.508-14.56l-2.797-2.807a6278 6278 0 0 1-7.835-7.886l-2.34-2.349c-3.499-3.533-6.8-7.057-9.837-11.005a78 78 0 0 0-3.5-3c-4.485-3.81-8.37-8.09-12.287-12.469-2.558-2.838-5.04-5.386-8.213-7.531-3.264 1.43-5.428 3.182-7.934 5.703l-2.216 2.223-2.288 2.324-2.275 2.277c-3.158 3.183-6.264 6.356-9.103 9.828-1.81 2.193-3.497 3.923-5.684 5.707-3.86 3.296-7.472 6.793-11.062 10.375l-1.606 1.593a147 147 0 0 0-7.953 8.615c-3.11 3.597-6.44 6.933-9.848 10.246l-1.603 1.565a1007 1007 0 0 1-6.634 6.428 598 598 0 0 0-4.888 4.757l-1.54 1.452C221.8 398.59 221.8 398.59 220 401c-.01 2.699.76 3.693 2.408 5.796l1.803 1.813 2.006 2.025 2.158 2.116c.73.72 1.46 1.44 2.21 2.182 5.452 5.301 11.05 9.896 17.415 14.068q1.743 1.203 3.48 2.414C271.628 445.326 293.165 454.44 317 460l3.633.898c46.772 10.961 96.876.423 137.576-24.236 11.596-7.255 21.954-15.732 31.932-25.049a136 136 0 0 1 5.949-5.125c2.78-2.377 4.955-4.752 7.223-7.613 4.632-5.81 4.632-5.81 6.914-8.508 18.574-21.987 31.385-48.27 38.898-75.992l.644-2.35c1.005-3.99 1.47-7.057.231-11.025-2.092-.22-2.092-.22-3.55 1.355"/><path fill="#5FA35C" d="M598 142c-1.416 8.192-3.115 16.3-4.934 24.41l-.844 3.782q-.879 3.935-1.762 7.869-1.121 5-2.232 10-1.077 4.833-2.162 9.662l-.795 3.583c-1.5 6.656-3.199 13.192-5.271 19.694-4 0-4 0-6.84-2.66a284 284 0 0 1-4.65-5.162c-2.94-3.242-2.94-3.242-6.994-4.432-3.646 1.817-6.065 4.427-8.828 7.379a1504 1504 0 0 1-3.481 3.598l-1.681 1.738c-1.798 1.813-3.687 3.471-5.651 5.101-3.2 2.71-5.96 5.674-8.758 8.793-6.382 7.042-13.11 13.716-19.867 20.395-9.73 9.535-9.73 9.535-18.867 19.63-5.022 5.883-10.748 10.586-16.93 15.214-2.48 2.433-3.217 4.265-4.425 7.448-2.28 4.34-6.265 7.549-9.778 10.896-6.5 6.238-6.5 6.238-12.578 12.878-5.377 6.276-11.398 11.964-17.275 17.766-6.022 5.952-11.963 11.912-17.397 18.418-3.339-1.453-5.528-3.28-8.092-5.851l-2.442-2.435-2.653-2.674-2.815-2.814a3784 3784 0 0 1-7.624-7.65c-2.66-2.672-5.327-5.34-7.993-8.008a15650 15650 0 0 1-15.143-15.186 22801 22801 0 0 0-17.182-17.225q-14.7-14.726-29.386-29.465l-2.451-2.46-2.246-2.254q-2.44-2.445-4.885-4.884a293 293 0 0 1-4.807-4.953l-2.781-2.891-1.395-1.496c-2.922-3.005-4.864-4.67-9.105-4.754-2.119 1.544-3.702 2.951-5.49 4.824l-1.588 1.591c-1.735 1.744-3.447 3.508-5.16 5.273a2269 2269 0 0 1-3.62 3.653 2007 2007 0 0 0-9.515 9.678c-3.821 3.903-7.661 7.787-11.501 11.672a2670 2670 0 0 0-8.962 9.105c-4.983 5.078-9.98 10.06-15.402 14.673-3.017 2.622-5.802 5.467-8.606 8.312l-1.859 1.87a3859 3859 0 0 0-5.797 5.849c-14.376 14.527-14.376 14.527-20.479 19.701-4.895 4.356-9.419 9.137-14.021 13.799-11.717 11.869-11.717 11.869-18.065 17.283-4.738 4.204-9.072 8.86-13.488 13.397-.76.77-1.52 1.541-2.302 2.336l-2.052 2.102c-2.218 1.994-4.494 3.431-7.093 4.882 0-3.905 1.175-4.742 3.688-7.687l2.488-2.961 1.373-1.624c2.646-3.15 5.234-6.347 7.826-9.54l1.678-2.063c3.59-4.423 7.13-8.884 10.635-13.375 4.22-5.409 8.563-10.694 12.976-15.95 2.838-3.402 5.601-6.86 8.36-10.327a798 798 0 0 1 6.163-7.598c11.812-14.4 11.812-14.4 23.375-29 4.163-5.348 8.512-10.503 12.953-15.621 3.975-4.602 7.747-9.337 11.477-14.138 3.772-4.846 7.673-9.564 11.621-14.268 6.046-7.214 11.953-14.542 17.887-21.848l7.847-9.66c4.773-5.883 9.613-11.684 14.653-17.34 4.07 1.652 6.979 4.532 10.125 7.5l1.735 1.618c4.396 4.122 8.653 8.371 12.886 12.66a114 114 0 0 0 6.129 5.597c3.558 3.04 6.84 6.299 10.125 9.625 3.837 3.88 7.719 7.615 11.871 11.16 6.734 5.82 13.264 11.886 19.496 18.238 1.774 1.74 3.623 3.358 5.508 4.977 3.01 2.591 5.836 5.298 8.625 8.125 3.382 3.429 6.88 6.62 10.535 9.754 2.073 1.842 4.02 3.77 5.965 5.746 7.25 7.507 7.25 7.507 16 13 9.415-9.254 9.415-9.254 18.262-19.043 2.953-3.325 6.166-6.391 9.328-9.516 2.679-2.713 5.156-5.549 7.633-8.445 2.654-2.98 5.507-5.749 8.37-8.527 2.615-2.683 5.052-5.482 7.507-8.31 3.215-3.653 6.558-7.184 9.9-10.721l2.04-2.17c3.126-3.317 6.274-6.597 9.522-9.795 3.047-3.022 5.862-6.2 8.665-9.446 2.98-3.407 6.098-6.68 9.21-9.964l4.2-4.446 2.165-2.29q3.333-3.53 6.655-7.07l2.18-2.32q2.068-2.2 4.134-4.404l1.9-2.021 1.753-1.878c1.302-1.35 2.688-2.62 4.092-3.864L533 182c-.383-3.298-1.505-4.84-3.941-7.016l-1.768-1.601-1.854-1.633-1.865-1.68A750 750 0 0 0 519 166l1-3a64 64 0 0 1 6.95-2.376l2.203-.656a963 963 0 0 1 7.245-2.109q2.51-.736 5.02-1.474 5.265-1.543 10.536-3.066c4.51-1.302 9.013-2.624 13.515-3.951q5.183-1.524 10.372-3.032 2.491-.726 4.983-1.46c2.32-.68 4.642-1.35 6.967-2.018l2.087-.62c3.278-.928 4.81-1.342 8.122-.238"/><path fill="#FDFDFD" d="M1368 132c2.682.279 5.332.62 8 1 17.768 2.347 35.535 3.78 53.416 4.91 24.143 1.56 24.143 1.56 29.584 6.09-.585 3.592-1.97 5.373-4.437 8-5.42 5.792-6.017 9.842-5.876 17.734.587 6.134 2.85 10.217 7.438 14.266 2.565 2.19 2.565 2.19 4.875 2l.044-2.383c.075-3.581.171-7.161.268-10.742l.069-3.75.107-3.633.08-3.332c.498-3.645 1.47-6.054 3.432-9.16 3.483-2.39 6.73-2.265 10.87-2.29l2.071-.02c2.262-.02 4.524-.024 6.786-.026l4.763-.02q5.006-.017 10.012-.015c4.225 0 8.448-.026 12.673-.061 3.288-.023 6.576-.026 9.864-.025q2.33-.004 4.66-.027c20.93-.192 41.692 4.202 57.271 19.075 14.125 14.44 18.288 33.074 18.279 52.642-.24 18.91-6.565 35.764-19.562 49.517-13.54 12.927-32.447 17.443-50.726 17.664l-3.051.059c-3.178.059-6.357.106-9.535.152l-6.512.117q-7.93.142-15.863.258l-.031 2.195q-.147 10.22-.308 20.44-.084 5.254-.158 10.51-.088 6.034-.187 12.07l-.05 3.829-.06 3.518-.048 3.116C1496 348 1496 348 1495 349c-2.364.1-4.698.14-7.062.133l-2.141.003q-2.245 0-4.49-.006-3.446-.005-6.893.007-2.176 0-4.351-.004l-2.096.006c-4.852-.024-4.852-.024-5.967-1.139a122 122 0 0 1-.158-5.967l-.03-3.93-.017-4.353-.03-4.552q-.04-6.198-.068-12.396-.035-6.471-.076-12.941-.074-12.261-.138-24.522-.076-13.955-.16-27.91-.17-28.715-.323-57.429l-2.5-1.214-3.277-1.61-3.25-1.589c-3.478-1.857-6.053-3.967-8.973-6.587-2.954-.985-4.96-1.137-8.043-1.176l-3.006-.072a564 564 0 0 0-6.219-.094c-6.156-.17-11.785-.644-16.732-4.658-1.212-2.138-1.212-2.138-2-4 1.832-1.832 4.757-1.239 7.223-1.316l3.818-.127 4.022-.12 4.033-.13q4.951-.16 9.904-.307l-1-3c-3.936-.725-7.703-1.137-11.703-1.21l-3.223-.087q-3.3-.078-6.601-.133c-8.529-.247-17.133-1.104-24.098-6.507l-1.977-1.465C1386 157 1386 157 1386 153l49 3c-6.997-6.997-19.286-5.843-28.711-6.526-13.3-.984-27.631-2.185-37.289-12.474-1.234-2.219-1.234-2.219-2-4zm128 50a156 156 0 0 0-.13 7.074l-.005 2.242q-.004 3.685.002 7.371l-.003 5.1q-.002 5.353.006 10.704.006 6.876-.004 13.751-.004 5.268 0 10.536 0 2.535-.002 5.072-.003 3.538.007 7.076l-.007 2.138c-.262 3.248-.262 3.248 1.136 5.936 2.962.139 5.9.213 8.863.238l2.735.025q2.88.02 5.763.032c2.901.017 5.802.061 8.703.105 14.176.122 25.3-.732 35.877-11.107 7.318-8.15 9.623-17.948 9.496-28.668l-.029-2.802c-.296-11.397-3.164-18.496-11.19-26.73-10.685-10.083-23.67-9.529-37.51-9.374-2.861.031-5.722.04-8.583.047l-5.445.03-2.598.014c-3.852-.328-3.852-.328-7.082 1.19M835 155l2 2c-.255 6.077-3.1 11.758-5.375 17.313-.4 1.013-.8 2.027-1.21 3.072-.589 1.443-.589 1.443-1.188 2.916l-1.076 2.661C827 185 827 185 824 186a129 129 0 0 1-7.687-4.125c-13.554-7.528-26.884-11.052-42.375-11.125l-3.24-.062c-12.45-.06-23.388 2.191-32.514 11.082-5.488 6.068-6.617 11.246-6.418 19.367.475 5.802 2.997 8.868 6.984 12.863 10.996 9.143 26.642 11.965 40.188 15.5 48.413 12.661 48.413 12.661 60.488 32.55 7.987 14.964 8.546 31.189 3.832 47.255-5.06 14.866-14.96 25.582-28.926 32.578-28.668 13.665-63.943 11.158-93.445 1.15-9.574-3.431-22.681-8.684-28.887-17.033.683-5.79 3.44-10.93 5.813-16.187l1.33-3.061 1.314-2.92 1.187-2.665c1.53-2.445 2.695-3.158 5.356-4.167l1.441 1.25C728.527 314.822 753.375 320.587 779 319c10.159-.996 20.223-4.07 27-12.125 3.733-6.005 4.643-13.793 3.5-20.687-1.89-6.33-5.006-9.706-10.682-13.078-10.506-5.564-21.142-8.783-32.63-11.673-10.311-2.631-20.494-5.367-30.497-9.023l-2.325-.844c-7.043-2.653-13.219-6.208-19.366-10.57-.694-.48-1.387-.96-2.102-1.453-9.303-7.132-14.254-18.875-16.648-30.047-1.282-17.947 2.079-33.272 13.121-47.57C718.444 150.92 732.604 144.328 747 141l2.777-.676c28.293-5.582 60.707-.766 85.223 14.676"/><path fill="#FDFDFD" d="m1311.844 139.867 2.073-.003q2.175 0 4.348.006c2.226.005 4.45 0 6.676-.007q2.108 0 4.215.004l3.9.004C1336 140 1336 140 1337 141c.108 1.568.147 3.142.158 4.714l.03 3.09.017 3.417.03 3.577q.04 4.868.068 9.737.035 5.082.076 10.166.074 9.63.138 19.262.076 10.963.16 21.925.17 22.556.323 45.112c3.002-1.435 4.99-2.782 7.25-5.238l1.824-1.965 1.926-2.11 2.02-2.183q2.996-3.246 5.98-6.504 1.562-1.694 3.125-3.387 2.162-2.34 4.321-4.683c5.814-6.311 11.694-12.561 17.57-18.816q3.12-3.324 6.238-6.653l2.09-2.231 3.997-4.266 1.807-1.929 1.6-1.707c2.193-2.326 2.193-2.326 5.854-2.442a782 782 0 0 1 4.808.016l2.552.005c2.7.005 5.4.018 8.1.03q2.74.008 5.479.014 6.73.017 13.459.049c0 4.34-.062 4.563-2.86 7.434l-1.863 1.945-2.027 2.059-4.172 4.34-2.103 2.17c-2.704 2.81-5.343 5.675-7.975 8.552a1645 1645 0 0 1-15.662 16.77 350 350 0 0 0-10.815 12.037C1389 255 1389 255 1386.5 257.187c-1.74 1.697-1.74 1.697-1.434 3.961 1.332 4.068 3.744 6.952 6.371 10.29q1.66 2.159 3.317 4.32l1.672 2.173c2.217 2.914 4.34 5.89 6.449 8.882 6.25 8.82 12.698 17.495 19.125 26.187a5406 5406 0 0 1 12.374 16.792c1.578 2.143 3.17 4.275 4.763 6.407l2.8 3.801 1.308 1.726c1.157 1.587 1.157 1.587 2.755 4.274l-1 3c-32.35 2.986-32.35 2.986-40.948-1.559-4.52-4.117-7.1-9.284-9.684-14.755-2.278-4.474-5.368-8.29-8.43-12.248a985 985 0 0 1-3.47-4.708l-1.726-2.35c-6.645-9.08-13.208-18.22-19.742-27.38-3.287 1.096-3.88 1.778-6 4.375-3.956 4.685-8.264 8.924-12.645 13.207-4.5 4.62-4.672 8.038-4.734 14.207l-.051 2.603c-.054 2.744-.094 5.489-.132 8.233q-.066 4.128-.143 8.254a821 821 0 0 0-.08 5.138c-.103 5.871-.103 5.871-1.215 6.983-2.28.1-4.562.13-6.844.133l-2.073.003q-2.175 0-4.348-.006-3.338-.005-6.676.007-2.108 0-4.215-.004l-3.9-.004C1305 349 1305 349 1304 348c-.1-2.666-.134-5.306-.127-7.972l-.005-2.562c-.004-2.855 0-5.71.003-8.566l-.006-6.113q-.004-8.328 0-16.655c.003-5.796 0-11.591 0-17.387q-.004-14.603.005-29.205.007-16.91-.002-33.819-.007-14.488-.003-28.978.003-8.666-.001-17.332-.004-8.145.005-16.291 0-2.999-.002-5.998-.002-4.074.006-8.15l-.007-2.43c.026-7.18.983-6.669 7.978-6.675"/><path fill="#FCAD31" d="M436 0h56l-.016 14.458q-.025 23.781-.036 47.561-.007 14.403-.023 28.806-.015 12.573-.02 25.145 0 6.64-.01 13.28c-.03 18.799.118 37.533 1.002 56.316.22 5.19.246 10.365.103 15.559l.02 2.91c-.185 6.412-1.652 9.704-6.184 14.254L485 220l-2.625 2.688L480 225c-3.62 3.575-7.052 7.226-10.332 11.113-2.847 3.22-5.944 6.185-9.027 9.176-4.418 4.317-8.534 8.696-12.391 13.524-3.157 3.932-6.041 7.381-10.25 10.187l-3-1c-.032-32.131.048-64.261.202-96.392q.043-9.102.084-18.205.079-17.11.16-34.217l.18-39.065z"/><path fill="#FDFDFD" d="M1101.438 213.688c14.85 13.177 23.252 32.405 24.773 52.041 1.128 23.345-4.015 44.365-19.461 62.459-11.116 11.848-24.923 18.656-40.75 21.812l-3.375.688c-22.072 1.902-42.281-2.605-59.625-16.688l-3.125-2.25C986.04 318.517 977.8 299.128 977 280l-.121-2.46C976.31 254.75 983.36 233.736 999 217c27.584-26.959 72.914-26.296 102.438-3.312m-79.407 25.449c-8.492 10.309-11.431 21.558-11.343 34.738l.014 2.66c.226 12.47 3.976 24.526 12.571 33.871 8.568 7.909 18.13 11.579 29.727 11.594 11.774-.838 20.83-4.787 28.957-13.402 6.758-8.593 10.186-18.784 11.043-29.598l.164-1.945c.56-13.403-2.984-27.324-11.39-37.84-6.967-7.508-15.455-12.64-25.805-13.453-13.883-.297-24.418 3.043-33.938 13.375"/><path fill="#FCAC30" d="m367.3 58.839 2.62-.03 2.822-.012 2.91-.017q3.05-.014 6.098-.02c3.106-.01 6.211-.041 9.316-.073q2.963-.009 5.926-.015l2.81-.038c4.866.017 8.283.123 12.198 3.366 1.286 2.572 1.14 4.422 1.158 7.303l.03 3.419.017 3.777.03 3.975q.04 5.442.068 10.883.035 5.773.077 11.548.083 12.396.153 24.792.045 7.638.092 15.276.189 30.799.343 61.597.034 7.002.072 14.003c.06 11.677.112 23.354.136 35.031q.01 4.749.032 9.498c.02 4.245.022 8.49.022 12.734l.022 3.611-.01 3.25.005 2.768c-.274 2.812-1.083 4.973-2.247 7.535-4.496-1.43-7.461-3.925-10.813-7.125l-1.594-1.491c-3.655-3.436-7.208-6.968-10.722-10.548-1.95-1.914-3.98-3.688-6.059-5.461-2.777-2.38-5.007-4.829-7.273-7.71-2.134-2.308-4.53-4.194-6.977-6.165l-2.894-2.344a616 616 0 0 0-4.68-3.75c-3.998-3.485-4.406-6.031-4.84-10.995-.22-3.581-.288-7.144-.277-10.732l-.006-2.378q-.004-3.891.002-7.781l-.004-5.583q-.003-7.506.008-15.012l.01-9.34c.028-28.009.108-56.019.383-84.027q.05-5.112.082-10.225.038-5.974.117-11.947.025-2.175.035-4.349c.01-1.966.039-3.932.07-5.899l.033-3.322c.45-3.176 1.158-4.55 3.399-6.816 2.761-.92 4.45-1.136 7.3-1.161"/><path fill="#FDFDFD" d="M1263.773 209.207C1278.6 221.146 1278.6 221.146 1281 229c-1.334 3.794-3.48 5.3-6.79 7.453l-2.85 1.875-2.985 1.922-3.008 1.969A1314 1314 0 0 1 1258 247c-3.485-1.61-5-3.073-7.187-6.25-5.802-7.678-13.317-12.143-22.813-13.75-11.35-1.08-21.525.429-30.875 7.25-10.707 9.08-15.54 20.635-16.875 34.375-.845 14.65 2.102 28.853 11.664 40.336 8.748 8.552 19.062 11.877 31.086 12.039 10.377-.782 19.34-4.474 26.46-12.152 2.366-2.84 4.475-5.782 6.54-8.848 5.15 1.755 9.585 4.657 14.188 7.5l2.482 1.512c6.067 3.725 6.067 3.725 8.33 5.988-.479 7.872-8.441 14.983-14 20-15.205 13.285-34.18 17.28-54 16-19.347-2.45-37.415-10.392-50.125-25.531-14.524-19.146-19.115-41.378-16.607-64.993 2.197-15.011 8.523-29.188 18.732-40.476l1.605-1.848c23.617-25.523 69.246-28.693 97.168-8.945M1988.967 163.861l2.096.006 2.14-.003q2.245 0 4.49.006c2.297.005 4.595 0 6.893-.007q2.175 0 4.352.004l2.095-.006c4.852.024 4.852.024 5.967 1.139.16 2.592.26 5.16.316 7.754l.063 2.35q.097 3.729.184 7.458l.13 5.045q.161 6.197.307 12.393l3.564.076q6.522.142 13.044.296 2.827.066 5.654.125 4.054.088 8.11.187l2.569.05c5.945.152 5.945.152 7.059 1.266.28 4.139.232 8.29.25 12.437l.063 3.55.015 3.384.028 3.123L2058 227c-3.806 2.538-6.969 2.35-11.387 2.414l-2.476.059c-2.608.06-5.216.106-7.824.152q-2.654.057-5.307.117-6.502.143-13.006.258-.07 13.653-.104 27.305-.014 6.342-.047 12.682-.032 6.127-.039 12.254-.005 2.33-.021 4.659c-.39 15.503-.39 15.503 6.211 29.1 5.976 5.393 11.345 5.408 19.117 5.309 4.532-.36 7.844-1.522 11.832-3.63 2.051-.679 2.051-.679 4.06.031 2.394 1.55 2.903 2.608 3.913 5.247l.918 2.373.91 2.482.957 2.448c1.516 4.005 2.752 7.385 2.293 11.74-16.603 9.885-35.495 11.077-54.074 6.543-10.05-2.835-18.085-8.444-23.64-17.266-7.05-13.081-7.745-26.328-7.798-40.828l-.054-5.258c-.047-4.568-.077-9.136-.104-13.705-.03-4.68-.076-9.36-.121-14.039-.086-9.149-.153-18.298-.209-27.447l-2.095-.076a3885 3885 0 0 1-9.342-.362l-3.3-.119-3.134-.127-2.904-.11C1959 229 1959 229 1958 228c-.1-1.915-.13-3.833-.133-5.75l-.004-3.531.012-3.719-.012-3.719.004-3.531.004-3.266C1958 202 1958 202 1959 201a96 96 0 0 1 5.129-.316l3.135-.127 3.299-.12 3.31-.13q4.063-.16 8.127-.307l.076-3.197q.142-5.85.296-11.702.065-2.535.125-5.072.088-3.637.187-7.275l.05-2.304c.187-6.559.187-6.559 6.233-6.589M888.967 163.861l2.096.006 2.14-.003q2.245 0 4.49.006c2.297.005 4.595 0 6.893-.007q2.175 0 4.352.004l2.095-.006c4.852.024 4.852.024 5.967 1.139.16 2.592.26 5.16.316 7.754l.063 2.35q.097 3.729.184 7.458l.13 5.045q.161 6.197.307 12.393l3.564.076q6.522.142 13.044.296 2.827.066 5.654.125 4.054.088 8.11.187l2.569.05c5.945.152 5.945.152 7.059 1.266.1 1.915.13 3.833.133 5.75l.004 3.531-.012 3.719.012 3.719-.004 3.531-.004 3.266C958 228 958 228 957 229c-2.883.16-5.744.26-8.629.316l-2.619.063q-4.157.098-8.314.183l-5.624.131q-6.907.161-13.814.307-.106 13.823-.155 27.645c-.016 4.28-.037 8.56-.071 12.839q-.048 6.205-.059 12.41a686 686 0 0 1-.032 4.715c-.27 14.673-.27 14.673 5.567 27.828 6.04 5.629 11.41 6.086 19.453 5.938 4.153-.472 7.458-1.736 11.176-3.598 2.603-.954 3.575-.834 6.121.223 1.22 1.978 1.22 1.978 2.21 4.55l1.083 2.807 1.082 2.955 1.152 2.92c2.692 7.166 2.692 7.166 1.659 10.005-3.955 5.88-13.737 7.321-20.186 8.763-15.552 3.018-31.932.758-45.508-7.531-10.908-7.84-15.86-18.644-18.025-31.676-.48-3.9-.64-7.734-.672-11.656l-.03-2.279q-.047-3.693-.081-7.385l-.063-5.15q-.082-6.748-.153-13.498-.077-6.898-.161-13.796-.162-13.515-.307-27.029l-2.095-.076a3885 3885 0 0 1-9.342-.362l-3.3-.119-3.134-.127-2.904-.11C859 229 859 229 858 228c-.1-1.915-.13-3.833-.133-5.75l-.004-3.531.012-3.719-.012-3.719.004-3.531.004-3.266C858 202 858 202 859 201a96 96 0 0 1 5.129-.316l3.135-.127 3.299-.12 3.31-.13q4.063-.16 8.127-.307l.076-3.197q.142-5.85.296-11.702.065-2.535.125-5.072.088-3.637.187-7.275l.05-2.304c.187-6.559.187-6.559 6.233-6.589M1708.967 139.861l2.096.006 2.14-.003q2.245 0 4.49.006c2.297.005 4.595 0 6.893-.007q2.175 0 4.352.004l2.095-.006c4.852.024 4.852.024 5.967 1.139.1 2.666.134 5.306.127 7.972l.005 2.562c.004 2.855 0 5.71-.003 8.566l.006 6.113q.005 8.328 0 16.655c-.003 5.796 0 11.591 0 17.387q.004 14.603-.005 29.205-.006 16.91.002 33.819.007 14.488.003 28.978-.003 8.666.001 17.332.004 8.145-.005 16.291 0 2.999.002 5.998.002 4.074-.006 8.15l.007 2.43c-.02 5.428-.02 5.428-1.134 6.542-2.364.1-4.698.14-7.062.133l-2.141.003q-2.245 0-4.49-.006c-2.297-.005-4.595 0-6.893.007q-2.176 0-4.351-.004l-2.096.006c-4.852-.024-4.852-.024-5.967-1.139-.1-2.666-.134-5.306-.127-7.972l-.005-2.562c-.004-2.855 0-5.71.003-8.566l-.006-6.113q-.005-8.327 0-16.655c.003-5.796 0-11.591 0-17.387q-.003-14.603.005-29.205.006-16.91-.002-33.819-.007-14.488-.003-28.978.003-8.666-.001-17.332-.004-8.145.005-16.291 0-2.999-.002-5.998-.002-4.074.006-8.15l-.007-2.43c.024-6.65.024-6.65 6.1-6.68"/><path fill="#FCAC31" d="m204.314 154.372 2.575-.003 2.932-.038 3.148.04 3.25-.007q3.399 0 6.798.04c3.47.033 6.938.02 10.409 0q3.302.01 6.605.03l3.148-.015 2.932.048 2.575.018c3.204.713 4.37 1.895 6.314 4.515.526 2.703.526 2.703.562 5.832l.07 3.563.013 3.847.057 3.985q.059 4.184.082 8.368c.02 3.534.063 7.068.114 10.602.049 3.41.085 6.822.122 10.233l.043 3.786c.15 24.99.15 24.99-4.875 30.784l-2.454 2.93L246 246a916 916 0 0 0-2.984 3.508 806 806 0 0 1-6.164 7.172c-2.423 2.8-4.75 5.66-7.04 8.57-2.675 3.391-5.463 6.622-8.374 9.813-3.395 3.725-6.546 7.547-9.598 11.554-3.509 4.545-7.188 8.953-10.84 13.383l-3-1a19456 19456 0 0 1-.207-54.111c-.02-8.375-.049-16.75-.095-25.125q-.06-10.949-.074-21.898c-.006-3.865-.018-7.73-.047-11.595q-.039-5.458-.03-10.916c-.001-1.97-.023-3.941-.045-5.912l.017-3.565-.011-3.092c.727-4.118 2.648-7.285 6.806-8.414"/><path fill="#3588A9" d="M1950 164c.127 6.106-.249 11.749-1.312 17.754l-.404 2.383a1762 1762 0 0 1-1.284 7.426q-.435 2.54-.867 5.08-1.056 6.18-2.133 12.357c-1.89.592-1.89.592-4 1-1.98-1.665-3.472-3.542-5.121-5.531-1.8-1.716-1.8-1.716-4.309-1.485-3.343 1.322-4.893 3.062-7.257 5.766l-1.304 1.479c-3.57 4.111-6.848 8.43-10.113 12.785-3.578 4.714-7.513 9.014-11.57 13.317-3.669 3.905-7.03 7.968-10.322 12.196-3.03 3.739-6.316 7.229-9.61 10.735L1878 262l-1.333 1.463c-3.454 4.195-4.171 7.122-3.775 12.503l.268 2.589.404 5.55q.367 4.33.76 8.656c1.59 18.278 1.59 18.278-2.265 24.06-1.714 1.953-1.714 1.953-3.059 3.179-3.566-1.189-3.685-1.746-5.305-4.973l-1.27-2.478c-.428-.862-.858-1.724-1.3-2.611-3.117-6.172-6.346-12.144-10.125-17.938-4.16.857-6.861 2.955-10.125 5.563l-1.746 1.369A839 839 0 0 0 1834 303l-2.617 2.09q-2.397 1.92-4.79 3.848c-3.558 2.83-7.17 5.59-10.781 8.353a437 437 0 0 0-9.687 7.647 552 552 0 0 1-13.062 10.125l-1.975 1.52c-1.638 1.22-3.359 2.33-5.088 3.417l-3-1c3.887-5.457 8.137-10.43 12.652-15.375 3.11-3.478 6.036-7.09 8.973-10.715 3.914-4.796 7.933-9.504 11.941-14.222q3.658-4.31 7.309-8.625l1.333-1.574A3279 3279 0 0 0 1829 284l1.466-1.606c1.252-1.401 2.403-2.893 3.534-4.394-.699-3.168-.699-3.168-3.393-4.47l-3.138-1.526-3.395-1.693a3002 3002 0 0 0-7.148-3.485l-3.395-1.697-3.138-1.53C1808 262 1808 262 1807.154 259.805L1807 258c7.718-6.52 16.516-5.965 26.125-6.25q3.68-.142 7.357-.296 2.277-.093 4.555-.164c7.396.097 7.396.097 13.817-2.856l1.552-1.996 1.778-2.192L1864 242a274 274 0 0 1 3.719-4l1.886-2 3.79-4a392 392 0 0 0 10.873-12.031c2.837-3.225 5.786-6.343 8.732-9.469 4.253-4.535 8.498-9.064 12.531-13.797a110 110 0 0 1 3.25-3.594l1.719-1.859 1.531-1.61c1.15-1.606 1.15-1.606.88-3.609-1.187-2.647-2.744-3.941-4.974-5.781l-2.222-1.86L1904 177c2.704-3.552 6.483-4.297 10.59-5.445l2.245-.653c2.365-.685 4.734-1.356 7.102-2.027q2.387-.688 4.772-1.379c4.093-1.181 8.188-2.352 12.291-3.496l2.31-.664c2.39-.475 4.355.08 6.69.664"/><path fill="#FCAF33" d="m286.586 106.839 2.882-.03 3.122-.012 3.198-.017q3.352-.015 6.706-.02c3.426-.01 6.852-.041 10.277-.073l6.506-.015 3.116-.038 2.892.01 2.545-.011c2.69.455 3.534 1.218 5.17 3.367.932 2.796 1.124 4.46 1.12 7.347l.004 2.69-.01 2.942v3.105c0 3.393-.009 6.785-.016 10.178l-.005 7.05q-.006 9.283-.024 18.568-.014 9.471-.02 18.942-.016 18.589-.049 37.178c-4.692 0-5.052-.527-8.313-3.625l-2.64-2.477-1.46-1.391a519 519 0 0 0-5.259-4.905C309.41 199.205 302.583 192.744 296 186c-4.036 1.541-5.908 4.127-8.5 7.5-4.627 6.021-4.627 6.021-8.5 7.5-1.656-5.063-2.293-9.596-2.275-14.936l-.015-2.304c-.014-2.493-.013-4.986-.01-7.479l-.014-5.233q-.01-5.472-.002-10.944c.006-4.664-.01-9.327-.034-13.99-.015-3.6-.016-7.2-.013-10.8q0-2.58-.015-5.157c-.013-2.408-.006-4.814.006-7.221l-.023-2.13c.053-5.023 1.106-8.423 3.395-12.806 2.395-1.198 3.911-1.14 6.586-1.161"/><path fill="#FDFDFD" d="m1635.844 197.867 2.073-.003q2.175 0 4.348.006c2.226.005 4.45 0 6.676-.007q2.108 0 4.215.004l3.9.004C1660 198 1660 198 1661 199c.099 1.921.126 3.846.127 5.77l.009 3.799-.007 4.206.006 4.4q.004 5.99 0 11.98c-.003 4.171 0 8.341 0 12.512q.004 10.507-.005 21.013-.007 12.165.002 24.33.007 10.425.003 20.85-.003 6.236.001 12.47.004 5.861-.005 11.721 0 2.157.002 4.314.002 2.933-.006 5.865l-.001 3.323C1661 348 1661 348 1660 349c-2.28.1-4.562.13-6.844.133l-2.073.003q-2.175 0-4.348-.006-3.338-.005-6.676.007-2.108 0-4.215-.004l-3.9-.004C1629 349 1629 349 1628 348a113 113 0 0 1-.127-5.77l-.009-3.799.007-4.206-.006-4.4q-.004-5.99 0-11.98c.003-4.171 0-8.341 0-12.512q-.004-10.507.005-21.013.007-12.165-.002-24.33-.007-10.425-.003-20.85.003-6.236-.001-12.47-.004-5.861.005-11.721 0-2.157-.002-4.314-.002-2.933.006-5.865l.001-3.323c.256-4.971 3.728-3.576 7.97-3.58"/><path fill="#2C7A9B" d="M1922.887 221.512c3.054 2.15 4.34 5.02 5.926 8.3l1.053 2.097c2.428 5.039 4.093 10.104 5.632 15.473 2.134 8.265 2.134 8.265 7.068 14.923 2.81 1.258 5.439 2.01 8.434 2.695q2.619 1.101 5.188 2.313L1960 269c-1 3-1 3-2.734 3.951l-2.23.803-2.425.9-2.549.909q-2.484.9-4.964 1.816l-2.234.799c-2.055.772-2.055.772-3.864 2.822a145 145 0 0 0-1.19 5.408c-4.114 21.005-16.168 39.934-33.54 52.455-9.405 6.146-20.885 12.236-32.273 13.33-2.317.309-3.943.676-5.997 1.807-2.146 3.148-3.293 6.53-4.5 10.125-.345.945-.69 1.89-1.047 2.863A309 309 0 0 0 1858 374h-3c-4-10-4-10-4.688-12.473-1.545-5.195-1.545-5.195-5.36-8.764-2.576-.824-5.107-1.387-7.764-1.888-12.373-2.91-22.514-7.456-32.188-15.875 1.559-4.528 5.072-6.646 8.813-9.312l1.869-1.417c4.556-3.278 4.556-3.278 7.9-3.248 3.908 1.579 7.566 3.528 11.285 5.504 11.504 5.408 27.103 5.348 39.258 1.91 15.436-5.755 28.139-15.772 35.875-30.437 7.137-16.93 7.931-32.723 2-50-1.073-2.419-2.172-4.76-3.46-7.07-.815-2.913.075-4.277 1.46-6.93a149 149 0 0 1 4.5-6.25l1.223-1.64c4.11-5.427 4.11-5.427 7.164-4.598"/><path fill="#63A45D" d="M1856 168c3.913 2.609 4.56 5.672 6 9.938q.738 2.174 1.5 4.34l.656 1.944c1 2.105 2.044 3.302 3.844 4.778 2.534.73 4.989 1.337 7.563 1.875 6.686 1.516 12.486 3.635 18.437 7.125-1.66 4.056-4.503 7.016-7.437 10.188l-1.487 1.654c-2.322 2.529-3.767 4.055-7.076 5.158-2.538-.58-5-1.224-7.5-1.937-15.99-4.226-31.15-1.554-45.598 6.46-12.326 7.446-19.672 18.31-24.902 31.477l-1.148 2.863c-4.088 12.357-3.221 28.807 2.273 40.54l1.125 2.097c1.75 3.5 1.75 3.5 1.637 5.898-1.142 3.35-2.887 5.177-5.324 7.727-2.444 2.581-4.588 4.913-6.563 7.875-2.696-.348-3.756-.708-5.527-2.828-5.346-9.181-9.1-18.11-10.535-28.672-.936-4.992-.936-4.992-4.508-8.352-3.109-1.27-6.204-2.224-9.43-3.148a95 95 0 0 1-4.75-2.312L1754 271l1-3c1.718-.84 1.718-.84 3.93-1.508.795-.265 1.59-.53 2.41-.805a231 231 0 0 1 5.047-1.554c4.682-1.557 4.682-1.557 7.79-5.182.773-2.306 1.336-4.57 1.823-6.951 3.93-12.838 8.92-24.921 18-35l2.395-2.676c12.115-12.825 27.427-22.08 45.168-24.074 2.956-.446 2.956-.446 5.437-2.25 3.079-4.941 4.735-10.603 6.32-16.168C1854 170 1854 170 1856 168"/><path fill="#6CA95D" d="M1947 163c-1.243 8.563-10.954 16.245-17 22-5.99 5.832-11.984 11.92-16.75 18.813-2.208 3.127-4.532 5.5-7.25 8.187-2.207 2.315-4.385 4.657-6.562 7l-1.846 1.983A7737 7737 0 0 0 1892 227l-1.706 1.835c-5.185 5.582-10.34 11.177-15.321 16.942-2.772 3.124-5.624 6.17-8.473 9.223-3.943 4.226-7.835 8.478-11.617 12.85-9.004 10.282-18.566 19.958-28.258 29.587l-4.059 4.045a8514 8514 0 0 1-7.419 7.387c-3.969 3.947-7.93 7.9-11.846 11.9l-3.988 4.043-2.05 2.1-1.962 1.983-1.776 1.807C1792 332 1792 332 1790 332l-.875 1.75L1786 340l-3-1c3.887-5.457 8.137-10.43 12.652-15.375 3.11-3.478 6.036-7.09 8.973-10.715 3.914-4.796 7.933-9.504 11.941-14.222q3.658-4.31 7.309-8.625l1.333-1.574A3279 3279 0 0 0 1829 284l1.466-1.606c1.252-1.401 2.403-2.893 3.534-4.394-.699-3.168-.699-3.168-3.393-4.47l-3.138-1.526-3.395-1.693a3002 3002 0 0 0-7.148-3.485l-3.395-1.697-3.138-1.53C1808 262 1808 262 1807.154 259.805L1807 258c7.718-6.52 16.516-5.965 26.125-6.25q3.68-.142 7.357-.296 2.277-.093 4.555-.164c7.396.097 7.396.097 13.817-2.856l1.552-1.996 1.778-2.192L1864 242a274 274 0 0 1 3.719-4l1.886-2 3.79-4a392 392 0 0 0 10.873-12.031c2.837-3.225 5.786-6.343 8.732-9.469 4.253-4.535 8.498-9.064 12.531-13.797a110 110 0 0 1 3.25-3.594l1.719-1.859 1.531-1.61c1.15-1.606 1.15-1.606.88-3.609-1.187-2.647-2.744-3.941-4.974-5.781l-2.222-1.86L1904 177c2.704-3.552 6.483-4.297 10.59-5.445l2.245-.653c2.365-.685 4.734-1.356 7.102-2.027q2.387-.688 4.772-1.379C1944.287 163 1944.287 163 1947 163"/><path fill="#FDFDFC" d="M1659 136c4.539 3.8 7.59 8.312 8.25 14.25.3 6.134-.64 10.727-4.25 15.75-5.223 5.342-10.991 8.077-18.437 8.375-5.851-.262-11.154-1.214-15.614-5.215-5.617-6.245-7.483-10.594-7.328-19.047.759-6.234 3.505-10.489 8.191-14.55 9.896-4.851 19.333-4.639 29.188.437"/><path fill="#F1B546" d="m367.3 58.839 2.62-.03 2.822-.012 2.91-.017q3.05-.014 6.098-.02c3.106-.01 6.211-.041 9.316-.073q2.963-.009 5.926-.015l2.81-.038c4.866.017 8.283.123 12.198 3.366 1.286 2.572 1.14 4.422 1.158 7.303l.03 3.419.017 3.777.03 3.975q.04 5.442.068 10.883.035 5.773.077 11.548.083 12.396.153 24.792.045 7.638.092 15.276.189 30.799.343 61.597.034 7.002.072 14.003c.06 11.677.112 23.354.136 35.031q.01 4.749.032 9.498c.02 4.245.022 8.49.022 12.734l.022 3.611-.01 3.25.005 2.768c-.274 2.812-1.083 4.973-2.247 7.535-4.496-1.43-7.461-3.925-10.813-7.125l-1.594-1.491c-3.655-3.436-7.208-6.968-10.722-10.548-1.95-1.914-3.98-3.688-6.059-5.461-2.777-2.38-5.007-4.829-7.273-7.71-2.134-2.308-4.53-4.194-6.977-6.165l-2.894-2.344a616 616 0 0 0-4.68-3.75c-3.998-3.485-4.406-6.031-4.84-10.995-.22-3.581-.288-7.144-.277-10.732l-.006-2.378q-.004-3.891.002-7.781l-.004-5.583q-.003-7.506.008-15.012l.01-9.34c.028-28.009.108-56.019.383-84.027q.05-5.112.082-10.225.038-5.974.117-11.947.025-2.175.035-4.349c.01-1.966.039-3.932.07-5.899l.033-3.322c.45-3.176 1.158-4.55 3.399-6.816 2.761-.92 4.45-1.136 7.3-1.161M359 67c-.735 3.437-.735 3.437-.615 7.173l-.017 2.119c-.013 2.33.01 4.66.033 6.991q-.003 2.514-.012 5.028c-.01 4.543.01 9.086.038 13.63.024 4.757.021 9.515.021 14.273q.01 11.985.065 23.968c.042 9.233.06 18.466.063 27.699.003 9.835.022 19.67.047 29.505q.009 4.247.013 8.495.01 6.677.046 13.355.012 2.45.012 4.898.005 3.347.032 6.693l.014 3.78c.363 4.735.965 8.238 4.572 11.455L366 248l2.687 2.75c2.014 2.482 2.014 2.482 4.313 2.25l.75 1.875c1.456 2.476 2.628 3.076 5.25 4.125v2c1.645 1.537 3.403 2.883 5.176 4.27C386 267 386 267 387.332 269.273c2.238 3.659 5.037 6.503 8.043 9.54l1.71 1.81c3.328 3.471 3.328 3.471 7.83 4.764L407 285l1 3 3-1q.07-42.48.104-84.96.014-19.725.047-39.448.03-17.19.037-34.378.003-9.104.023-18.207.02-8.566.015-17.133 0-3.146.012-6.29c.01-2.863.008-5.724.003-8.586l.017-2.518c-.023-4.506-.306-8.32-2.258-12.48-5.504-2.374-10.966-2.607-16.813-1.438C390 62 390 62 388 61c-3.93-.349-7.869-.37-11.813-.438l-3.314-.138-3.205-.045-2.929-.076c-3.862.983-5.744 3.393-7.739 6.697"/><path fill="#488AA7" d="M297.855 275.215c2.713.993 4.32 2.407 6.457 4.348l2.176 1.94c2 1.989 3.816 3.985 5.645 6.123 3.9 4.476 8.038 8.673 12.25 12.854l2.355 2.352q3.69 3.68 7.387 7.356l4.98 4.966q4.565 4.553 9.134 9.1 6.802 6.77 13.562 13.582l5.512 5.539 2.763 2.79c4.622 4.637 9.297 9.11 14.268 13.373 2.09 1.845 3.91 3.842 5.719 5.962 4.11 4.666 8.419 9.1 12.812 13.5l1.985 1.998c.62.62 1.242 1.239 1.882 1.877l1.683 1.68c3.026 2.793 3.026 2.793 6.958 3.355 3.384-1.177 5.022-2.889 7.492-5.473l2.629-2.734c2.67-2.89 5.29-5.81 7.828-8.816 2.125-2.403 4.385-4.633 6.668-6.887q3.941-3.902 7.875-7.812l2.066-2.042c3.379-3.362 6.643-6.764 9.754-10.376A76 76 0 0 1 468 335.5c3.819-3.356 7.15-6.852 10.422-10.734 2.277-2.548 4.956-4.58 7.578-6.766a152 152 0 0 0 3.117-3.582c4.118-4.761 8.535-9.18 13.008-13.606l2.379-2.365q2.256-2.243 4.52-4.48a304 304 0 0 0 4.843-4.955C516 287 516 287 519 286c-.578 3.196-1.441 4.806-3.766 7.059l-1.699 1.67-1.785 1.709-1.738 1.697q-1.705 1.664-3.417 3.32a232 232 0 0 0-11.658 12.17c-4.718 5.225-9.728 9.965-15.015 14.61-2.238 2.036-4.217 4.204-6.188 6.5-4.914 5.716-10.338 10.914-15.707 16.199-4.34 4.298-8.48 8.668-12.458 13.301-2.214 2.49-4.638 4.684-7.132 6.89-3.497 3.117-6.885 6.293-10.148 9.656l-1.88 1.933a370 370 0 0 0-3.6 3.779c-5.218 5.386-5.218 5.386-9.809 5.507-2.187-.687-2.187-.687-4-2l-.875-1.812c-1.37-2.666-3.293-4.065-5.613-5.903-2.167-1.842-3.774-4.043-5.512-6.285a283 283 0 0 0-5-5l-2.562-2.625c-2.322-2.374-2.322-2.374-4.75-4.062L383 363v-2h-2v-2l-3-1v-2l-1.797-.77c-2.447-1.366-3.696-2.747-5.453-4.918-3.061-3.627-6.342-6.702-9.95-9.777-2.052-1.75-4.006-3.517-5.8-5.535v-2h-2a282 282 0 0 1-5-5l-2.062-1.437c-2.625-2.117-4.107-4.755-5.938-7.563l-2-1v-2h-2v-2l-1.812-.875C332 312 332 312 329 310v-3l-1.687-.687c-2.966-1.683-4.967-3.85-7.313-6.313l-2.312-2.187C316 296 316 296 316 294h-2c-2.625-2.375-2.625-2.375-5-5v-2h-2c-2.625-2.375-2.625-2.375-5-5v-2h-2l-2-2c-5.953 5.061-11.553 10.4-17.062 15.938l-2.315 2.302c-3.484 3.49-6.87 6.998-10.057 10.764-3.31 3.849-6.989 7.13-10.792 10.484-5.327 4.824-10.339 9.974-15.399 15.075l-3.332 3.345A6180 6180 0 0 0 231 344l-1-3 2.117-2.11q9.912-9.882 19.816-19.771 5.09-5.084 10.186-10.162 4.925-4.909 9.842-9.824 1.87-1.866 3.743-3.731c8.801-8.743 8.801-8.743 17.032-18.02 1.672-1.828 2.623-2.456 5.12-2.167"/><path fill="#F3B446" d="M436 0h4c-.07.74-.142 1.479-.215 2.24a221 221 0 0 0-.905 20.694l-.003 3.125q0 5.126.01 10.253l-.001 7.394q0 7.93.008 15.862.011 11.466.012 22.933.004 18.607.019 37.216a87917 87917 0 0 1 .025 49.576q.016 46.354.05 92.707l4 1 .813-1.812C445 259 445 259 446.438 257.625c2.16-2.247 3.253-4.82 4.562-7.625h2l.773-1.83c1.372-2.426 2.564-3.36 4.86-4.904 4.663-3.353 8.386-7.282 12.242-11.516q2.088-2.257 4.18-4.512l2.03-2.193c3.862-4.124 7.877-8.094 11.915-12.045l2 1-1.358 1.342a4331 4331 0 0 0-6.204 6.158c-.705.696-1.41 1.392-2.135 2.11a224 224 0 0 0-11.728 12.594c-2.808 3.202-5.88 6.122-8.934 9.085-4.418 4.317-8.534 8.696-12.391 13.524-3.157 3.932-6.041 7.381-10.25 10.187l-3-1c-.032-32.131.048-64.261.202-96.392q.043-9.102.084-18.205.079-17.11.16-34.217l.18-39.065Q435.812 40.061 436 0"/><path fill="#F2BC55" d="m286.586 106.839 2.882-.03 3.122-.012 3.198-.017q3.352-.015 6.706-.02c3.426-.01 6.852-.041 10.277-.073l6.506-.015 3.116-.038 2.892.01 2.545-.011c2.69.455 3.534 1.218 5.17 3.367.932 2.796 1.124 4.46 1.12 7.347l.004 2.69-.01 2.942v3.105c0 3.393-.009 6.785-.016 10.178l-.005 7.05q-.006 9.283-.024 18.568-.014 9.471-.02 18.942-.016 18.589-.049 37.178c-4.692 0-5.052-.527-8.313-3.625l-2.64-2.477-1.46-1.391a519 519 0 0 0-5.259-4.905C309.41 199.205 302.583 192.744 296 186c-4.036 1.541-5.908 4.127-8.5 7.5-4.627 6.021-4.627 6.021-8.5 7.5-1.656-5.063-2.293-9.596-2.275-14.936l-.015-2.304c-.014-2.493-.013-4.986-.01-7.479l-.014-5.233q-.01-5.472-.002-10.944c.006-4.664-.01-9.327-.034-13.99-.015-3.6-.016-7.2-.013-10.8q0-2.58-.015-5.157c-.013-2.408-.006-4.814.006-7.221l-.023-2.13c.053-5.023 1.106-8.423 3.395-12.806 2.395-1.198 3.911-1.14 6.586-1.161M282 111c-2.634 3.555-2.269 7.565-2.227 11.798v2.366c0 2.576.016 5.151.032 7.727l.008 5.363c.008 4.702.028 9.404.05 14.106.02 4.799.03 9.598.04 14.398.02 9.414.055 18.828.097 28.242h3c1.622-1.625 1.622-1.625 3.062-3.75l1.536-2.11c1.306-1.994 2.388-3.985 3.402-6.14 6.558.619 6.558.619 8.812 2.562L301 187h2l.562 2c2.051 4.28 5.008 7.73 8.438 11l3 1c1.844 1.947 3.495 4.008 5.184 6.09 1.699 2.006 1.699 2.006 3.976 2.976C326 211 326 211 327 214c1.961.824 1.961.824 4 1 2.172-2.172 1.18-7.301 1.193-10.322l.025-2.966q.036-4.88.055-9.763l.017-3.359q.039-8.799.06-17.598c.017-6.07.062-12.14.112-18.209.034-4.657.046-9.315.051-13.972q.01-3.357.046-6.714c.032-3.13.032-6.258.024-9.387l.05-2.814c-.02-5.234-.02-5.234-2.923-9.472-3.734-1.962-7.15-1.96-11.265-1.885l-2.484.003q-2.595.01-5.189.046c-2.631.037-5.261.041-7.893.04q-2.53.015-5.059.036l-2.361.007c-4.823.082-8.955.528-13.459 2.329"/><path fill="#F1B348" d="m204.314 154.372 2.575-.003 2.932-.038 3.148.04 3.25-.007q3.399 0 6.798.04c3.47.033 6.938.02 10.409 0q3.302.01 6.605.03l3.148-.015 2.932.048 2.575.018c3.204.713 4.37 1.895 6.314 4.515.526 2.703.526 2.703.562 5.832l.07 3.563.013 3.847.057 3.985q.059 4.184.082 8.368c.02 3.534.063 7.068.114 10.602.049 3.41.085 6.822.122 10.233l.043 3.786c.15 24.99.15 24.99-4.875 30.784l-2.454 2.93L246 246a916 916 0 0 0-2.984 3.508 806 806 0 0 1-6.164 7.172c-2.423 2.8-4.75 5.66-7.04 8.57-2.675 3.391-5.463 6.622-8.374 9.813-3.395 3.725-6.546 7.547-9.598 11.554-3.509 4.545-7.188 8.953-10.84 13.383l-3-1a19456 19456 0 0 1-.207-54.111c-.02-8.375-.049-16.75-.095-25.125q-.06-10.949-.074-21.898c-.006-3.865-.018-7.73-.047-11.595q-.039-5.458-.03-10.916c-.001-1.97-.023-3.941-.045-5.912l.017-3.565-.011-3.092c.727-4.118 2.648-7.285 6.806-8.414M201 162c-.848 3.905-1.124 7.63-1.12 11.619l-.004 3.314.01 3.59v3.815q.001 5.16.013 10.32.007 5.398.008 10.798.004 10.215.021 20.43.016 11.634.022 23.268.016 23.922.05 47.846c4.116-3.224 4.116-3.224 7.578-7.102l1.315-1.719 1.357-1.804c3.99-5.196 8.14-10.13 12.574-14.957 3.073-3.415 5.953-6.972 8.832-10.55 1.66-2.03 3.334-4.016 5.063-5.985l1.373-1.585a755 755 0 0 1 3.842-4.376c2.388-3.377 3.156-5.925 4.066-9.922h2v-3l3-1c2.437-3.408 2.26-6.73 2.275-10.816l.015-2.052c.014-2.231.013-4.463.01-6.694l.014-4.663q.01-4.883.002-9.764c-.006-4.17.01-8.34.034-12.51.015-3.208.016-6.416.013-9.625q0-2.305.015-4.612c.013-2.15.006-4.298-.006-6.448l.002-3.704c-.407-3.388-.874-4.81-3.374-7.112-2.025-.608-2.025-.608-4.3-.533l-2.62-.048-2.822.015-2.91-.02a626 626 0 0 0-6.098.01c-3.107.013-6.21-.02-9.316-.059q-2.963 0-5.926.006l-2.81-.04c-5.724.082-8.765.643-12.198 5.669"/><path fill="#4E9DC2" d="M548 324c.359 4.377-.72 6.873-2.812 10.688-1.952 3.716-3.547 7.116-4.563 11.187-1.561 5.755-4.568 10.62-7.602 15.691-1.706 2.896-3.218 5.802-4.71 8.809C524.01 378.353 517.85 385.128 512 392l-2.082 2.45A378 378 0 0 1 505 400l-2.172 2.45c-4.462 5.008-8.969 9.924-13.828 14.55l-1.648 1.598c-5.137 4.744-10.84 8.602-16.63 12.495-2.9 1.952-5.708 3.896-8.433 6.094-2.19 1.734-4.213 2.928-6.726 4.125l-2.602 1.262L450 444q-3.66 1.806-7.312 3.625l-3.489 1.727c-3.153 1.574-3.153 1.574-5.875 3.289-5.205 3.044-11.42 3.62-17.324 4.359v-2l3.418-1.145c26.156-9.036 49.193-23.116 69.385-42 2.202-2.056 4.407-4.018 6.787-5.867 2.604-2.148 4.56-4.41 6.66-7.05 4.665-5.837 4.665-5.837 6.98-8.575 14.649-17.344 25.07-36.812 32.903-58.062l1.054-2.84.918-2.538c.92-1.976 1.558-2.923 3.895-2.923"/><path fill="#EC9F47" d="M411 189c2.596 5.191 3.148 8.854 3.145 14.685l.01 2.725q.013 4.477.013 8.953l.01 6.211q.009 6.517.007 13.036c0 5.569.014 11.137.031 16.706q.015 6.417.013 12.835 0 3.078.013 6.158c.01 2.873.007 5.745 0 8.618.007.849.012 1.697.018 2.571-.023 4.29-.267 7.591-2.26 11.502-4.496-1.43-7.461-3.925-10.812-7.125l-1.595-1.491c-3.655-3.436-7.208-6.968-10.722-10.548-1.95-1.914-3.98-3.688-6.058-5.461-2.778-2.38-5.008-4.829-7.274-7.71-2.953-3.194-6.48-5.767-9.867-8.481-3.14-2.567-5.955-5.174-8.672-8.184v-2h2c1.332 1.46 1.332 1.46 2.813 3.375 2.555 3.1 4.387 4.26 8.187 5.625a142 142 0 0 1 5 5l2.313 1.688L379 259v2l1.75.75c3.38 1.878 5.616 4.115 7.504 7.496 2.177 3.433 4.76 6.136 7.621 9.004l1.566 1.64c3.103 3.127 5.191 4.578 9.559 5.11l1 2h2l-.007-2.47q-.03-11.73-.045-23.46-.007-6.026-.023-12.05c-.057-20.034.16-40.003 1.075-60.02"/><path fill="#4B9EC3" d="M591 257c10.155 20.31-5.179 63.508-12 84-15.09 44.834-15.09 44.834-28 56h-2c1.125-2.972 2.223-5.334 4-8h2l.34-2.2c.694-2.946 1.711-4.998 3.222-7.613 5.907-10.597 11.272-21.096 15.313-32.562l.867-2.447c1.69-4.966 2.874-9.86 3.735-15.036C579 327 579 327 581 324c.451-2.05.451-2.05.625-4.187L582 316h2l.166-2.028a298 298 0 0 1 1.938-16.952c1.81-12.661 2.573-25.241 2.896-38.02l-2.703.875L582.75 261l-3.516 1.125C576 263 576 263 572 263v-2a785 785 0 0 1 7.25-2.562l2.066-.749c6.521-2.247 6.521-2.247 9.684-.689"/><path fill="#5090AE" d="m518 286 1 3-10.45 10.45-1.845 1.847a1010 1010 0 0 1-4.346 4.308c-2.562 2.601-4.989 5.298-7.421 8.02-4.719 5.225-9.729 9.965-15.016 14.61-2.238 2.036-4.217 4.204-6.188 6.5-4.914 5.716-10.338 10.914-15.707 16.199-4.32 4.278-8.437 8.627-12.397 13.24-2.51 2.811-5.256 5.321-8.067 7.826l-1.64 1.48A1014 1014 0 0 1 432 377l-3-2 1.504-1.25c4.198-3.57 7.893-7.249 11.45-11.45 2.568-2.887 5.295-5.587 8.046-8.3 3.344-3.298 6.597-6.592 9.625-10.187 3.323-3.915 7.102-7.194 10.953-10.579 2.864-2.642 5.337-5.493 7.844-8.468 2.277-2.548 4.956-4.58 7.578-6.766a152 152 0 0 0 3.117-3.582c4.118-4.761 8.535-9.18 13.008-13.606l2.379-2.365a2787 2787 0 0 1 4.517-4.48c1.65-1.64 3.281-3.294 4.909-4.955C516 287 516 287 518 286"/><path fill="#F2B844" d="M436 0h4l-.215 2.19c-.68 7.417-.923 14.743-.899 22.188v3.552q.002 5.745.016 11.492l.005 8.02q.004 9.435.021 18.868.016 10.752.022 21.505.016 22.093.05 44.185h-3z"/><path fill="#326A84" d="m326 349 1 3h3l1 3c2 1.209 2 1.209 4 2v3l1.813.188c3.069 1.14 3.537 3.02 5.187 5.812a63 63 0 0 0 3.188 2.688L348 371v2l1.75.75c2.58 1.433 4.311 3.034 6.25 5.25v2l3 1a523 523 0 0 1 4 5l2.75 2.188L368 391v2h2v2l3 1v2l1.754.762c2.529 1.394 4.18 2.976 6.183 5.05l2.098 2.16L385 408l2.875 2.75C390 413 390 413 391.063 415.188c.804 1.99.804 1.99 2.937 2.812 2.49 1.245 2.987 2.467 4 5h2c2.125 1.875 2.125 1.875 4 4v2l3 1v2l3 1v2h3v2c4.536-3.644 8.442-7.383 12-12 3.08-3.988 6.303-7.25 10.176-10.46 1.677-1.416 3.187-2.89 4.699-4.478C442 408 442 408 444 408c-1.388 3.139-2.995 5.223-5.45 7.61l-2.071 2.038-2.166 2.102c-4.798 4.678-9.432 9.396-13.781 14.497L419 436l-1.385 1.792C416 439 416 439 413.64 438.787c-3.029-.903-4.293-1.945-6.507-4.172l-2.214-2.197-2.382-2.426-2.544-2.542a1747 1747 0 0 1-6.867-6.917c-2.39-2.415-4.79-4.819-7.19-7.223a6329 6329 0 0 1-13.6-13.685 9229 9229 0 0 0-15.49-15.576A20324 20324 0 0 1 325 352z"/><path fill="#4F9972" d="m1851 267 1 2c-2.179 6.114-6.683 10.066-11.21 14.504-.806.8-1.611 1.602-2.44 2.427a2581 2581 0 0 1-7.725 7.632l-5.18 5.138a4788 4788 0 0 1-9.528 9.43 1039 1039 0 0 0-12.616 12.639l-3.988 4.043-2.05 2.1-1.962 1.982-1.776 1.807C1792 332 1792 332 1790 332l-.875 1.75L1786 340l-3-1c3.887-5.457 8.137-10.43 12.652-15.375 3.106-3.473 6.028-7.08 8.961-10.7A663 663 0 0 1 1826 288l1 3c-1.437 2.188-1.437 2.188-3 4h2l1-3c3.444-3 3.444-3 6-3l.813-2.437L1835 284l3-1v-2c1.32-1.227 1.32-1.227 3.125-2.625 4.02-3.307 6.924-7.116 9.875-11.375"/><path fill="#EFAB43" d="M254 161h1q.233 11.176.443 22.353.096 5.19.205 10.383.124 5.996.23 11.99l.083 3.692c.419 24.595.419 24.595-4.774 30.582l-2.453 2.93L246 246a916 916 0 0 0-2.984 3.508 806 806 0 0 1-6.164 7.172c-2.423 2.8-4.75 5.66-7.04 8.57-2.675 3.391-5.463 6.622-8.375 9.813-3.394 3.725-6.545 7.547-9.597 11.554-3.509 4.545-7.188 8.953-10.84 13.383l-3-1v-3l1.676-.133c3.461-1.291 5.264-3.94 7.512-6.742l1.469-1.784A778 778 0 0 0 213 282l4.375-5.375 2.176-2.676c2.95-3.552 5.977-7.032 9.012-10.512C238.904 252.254 238.904 252.254 246 239h2v-3c1.438-1.562 1.438-1.562 3-3 1.432-2.865 1.157-5.343 1.19-8.545l.025-2.036q.025-2.19.045-4.378.032-3.46.077-6.92c.07-5.728.13-11.455.19-17.183q.075-7.26.165-14.52.038-3.418.068-6.836l.05-4.166.039-3.69C253 162 253 162 254 161"/><path fill="#579C52" d="m591 148 3 1-1.358 1.342a4331 4331 0 0 0-6.205 6.158l-2.134 2.11c-3.346 3.33-6.603 6.68-9.674 10.265-5.273 6.123-11.14 11.679-16.89 17.348-4.5 4.46-8.835 8.96-12.956 13.771-4.336 4.878-9.106 9.363-13.756 13.94-4.353 4.311-8.53 8.688-12.521 13.337-2.54 2.917-5.326 5.57-8.1 8.26-1.905 1.955-3.671 3.928-5.441 6-5.008 5.772-10.48 11.091-15.902 16.469l-3.229 3.215Q481.921 265.11 478 269l-2-1 1.285-1.25 1.777-1.75 1.723-1.687c1.857-1.939 3.602-3.914 5.348-5.95 4.319-4.969 8.99-9.558 13.68-14.175q2.544-2.506 5.082-5.02l2.245-2.21c2.024-2.02 2.024-2.02 3.86-4.958h2l.757-1.747c1.417-2.568 3.032-4.253 5.13-6.3l2.345-2.312c.81-.79 1.62-1.578 2.456-2.391 6.58-6.416 6.58-6.416 12.769-13.203 5.04-5.874 10.65-11.197 16.16-16.625 4.447-4.406 8.726-8.865 12.801-13.617 2.398-2.736 4.978-5.267 7.582-7.805 4.022-3.967 7.866-8.005 11.531-12.309 2.045-2.354 4.231-4.521 6.469-6.691"/><path fill="#EFAD42" d="M488 0h4v143h-2a387324 387324 0 0 1-.573-65.805l-.242-27.835-.093-10.803-.03-3.376c-.058-7.35-.07-14.7-.02-22.05C488.982 8.72 488.587 4.371 488 0"/><path fill="#8BB867" d="M534 182c0 3 0 3-2.379 5.637a354 354 0 0 1-3.183 3.05q-1.668 1.62-3.329 3.243l-1.63 1.592c-2.444 2.442-4.667 5.057-6.905 7.685-1.622 1.847-3.32 3.57-5.074 5.293a107 107 0 0 0-6.625 7.125c-3.806 4.426-7.952 8.48-12.1 12.58-3.59 3.565-7 7.216-10.275 11.072-2.365 2.716-4.923 5.21-7.5 7.723l-2-1c4.539-5.38 9.332-10.402 14.375-15.312 2.71-2.776 5.241-5.66 7.782-8.59 3.01-3.425 6.145-6.727 9.28-10.036l4.204-4.445 2.166-2.29q3.318-3.524 6.615-7.07a1699.79 1699.79 0 0 0 6.261-6.724c3.256-3.48 6.477-6.677 10.317-9.533m-62 65 3 2q-5.19 5.3-10.406 10.571a1094 1094 0 0 0-3.536 3.597c-1.693 1.73-3.396 3.45-5.101 5.168l-1.579 1.626c-2.923 2.925-5.4 4.83-9.378 6.038 3.322-4.004 6.732-7.783 10.438-11.437 3.504-3.458 6.783-7.031 9.988-10.766 2.087-2.383 4.3-4.592 6.574-6.797"/><path fill="#429CB4" d="m1947 163 3 1c.185 9.41.185 9.41-1 14h-2l-1-6a362 362 0 0 0-3.125 3l-1.758 1.688c-1.793 1.958-3.315 3.903-4.875 6.042-3.34 4.52-7.101 8.535-10.992 12.583l-4.238 4.464-2.07 2.176a826 826 0 0 0-7.88 8.422l-2.34 2.523c-1.913 2.08-1.913 2.08-2.722 5.102-1.707 1.719-1.707 1.719-3.812 3.5l-2.083 1.781c-1.997 1.63-4.03 3.19-6.105 4.719 1.143-2.805 2.292-4.285 4.5-6.437 2.578-2.313 2.578-2.313 3.438-4.938 2.375-5.869 7.66-10.223 12.062-14.625a164 164 0 0 0 10.438-12.562c2.257-2.95 4.514-5.384 7.374-7.75 3.616-3.014 6.618-6.336 9.626-9.938l1.325-1.575c1.964-2.394 3.248-4.208 4.237-7.175"/><path fill="#2D787E" d="m1850 273 3 1-2.16 2.125-2.902 2.875-1.413 1.387a140 140 0 0 0-7.7 8.285c-4.267 4.925-8.863 9.516-13.478 14.111q-2.219 2.214-4.429 4.436l-2.863 2.86-2.579 2.574c-2.394 2.27-4.87 4.328-7.476 6.347l1 4-1.39 1.038q-3.15 2.355-6.297 4.712l-2.186 1.633-2.139 1.601-2.087 1.557c-1.624 1.246-3.186 2.572-4.733 3.912L1788 339l-3-1c3.24-4.152 6.66-7.522 10.672-10.922 3.377-3.014 6.516-6.255 9.647-9.522 1.19-1.222 2.432-2.394 3.681-3.556h2l.774-1.76c1.353-2.471 2.852-4.106 4.85-6.09.74-.741 1.48-1.482 2.244-2.244l2.421-2.39 2.48-2.472a4051 4051 0 0 1 7.856-7.794l5.32-5.293q6.52-6.486 13.055-12.957"/><path fill="#7CBB74" d="M1947 163c-1.243 8.563-10.954 16.245-17 22-5.99 5.832-11.984 11.92-16.75 18.813-2.21 3.13-4.529 5.496-7.25 8.187a812 812 0 0 0-6.937 7.375l-1.803 1.922A347 347 0 0 0 1886 234l-1-4 3-1a70 70 0 0 0 1-4l2-1c1.134-2.017 1.134-2.017 2-4h2l.625-1.687c1.555-2.615 3.478-4.084 5.852-5.942 1.602-1.442 2.632-2.86 3.773-4.684L1907 205h2l.676-1.64c1.745-3.11 4.077-5.538 6.512-8.11q1.493-1.602 2.984-3.207l1.467-1.573c3.724-4.022 7.327-8.129 10.674-12.47l1.687-2h2v-2h2l.875-1.812C1939 170 1939 170 1941 167h-3v-2c6.75-2 6.75-2 9-2"/><path fill="#F0A747" d="M333 122h1v96c-4.692 0-5.052-.527-8.312-3.625l-2.606-2.453-1.455-1.389a348 348 0 0 0-5.615-5.142l-4.137-3.766-2.048-1.838-1.897-1.748-1.712-1.556C305 195 305 195 305 192l2.125 2.25c2.723 2.788 2.723 2.788 5.75 4.563 3.425 2.397 5.71 5.04 8.387 8.214 2.375 2.696 4.856 4.828 7.738 6.973h2l.031-3.448q.147-16.047.308-32.095.084-8.25.158-16.502.072-7.956.156-15.912.031-3.042.056-6.084.037-4.246.086-8.492l.017-2.568c.074-5.785.074-5.785 1.188-6.899"/><path fill="#EFAD43" d="M410 64c2.139 1.709 2.933 2.593 3.385 5.337l.014 2.807.038 3.225-.005 3.538.031 3.725q.036 5.058.043 10.115c.01 3.524.036 7.047.06 10.57.044 6.673.072 13.345.095 20.017.027 7.596.071 15.192.117 22.788.093 15.626.164 31.252.222 46.878h-2c-.772-2.75-1.132-5.212-1.158-8.064l-.03-2.428-.017-2.637-.03-2.802a4032 4032 0 0 1-.081-9.202l-.063-6.455q-.066-6.79-.124-13.583-.073-8.59-.158-17.18c-.215-22.216-.427-44.431-.339-66.649"/><path fill="#2A6882" d="M297.438 322.063c3.002 1.098 4.48 2.547 6.562 4.937l-2.25-.5c-2.94-.62-2.94-.62-6.75-.5-2.016 1.447-2.016 1.447-3.898 3.473l-2.204 2.228-2.273 2.361-2.25 2.28a218 218 0 0 0-11.119 12.217c-1.5 1.721-3.112 3.186-4.881 4.628-3.64 3.102-7.055 6.376-10.437 9.75l-1.462 1.448a154 154 0 0 0-7.726 8.369c-4.323 4.988-9 9.604-13.687 14.246-.875.87-1.75 1.74-2.65 2.637A4216 4216 0 0 1 226 396l-3-1 1-2h3l.813-2.312c1.138-2.578 2.001-3.958 4.187-5.688h2l.688-1.75c1.66-2.845 3.733-4.187 6.312-6.25a178 178 0 0 0 3.5-4c2.62-3.074 5.326-5.494 8.5-8q1.373-1.601 2.688-3.25L258 359h2l.625-1.61c1.955-3.398 4.596-5.9 7.375-8.64l1.656-1.68c4.09-4.07 4.09-4.07 6.344-4.07l.813-1.766c1.202-2.262 2.525-4.04 4.187-5.984l1.563-1.86C284 332 284 332 286 332l1-3h3l.813-1.812c2.834-5.223 2.834-5.223 6.625-5.125"/><path fill="#5499B7" d="M1931.063 199.188A69 69 0 0 1 1937 202v3c3.629.151 3.629.151 7-1v5c-1.785.719-1.785.719-4 1-1.98-1.665-3.472-3.542-5.121-5.531-1.8-1.716-1.8-1.716-4.309-1.485-3.343 1.322-4.893 3.062-7.257 5.766l-1.304 1.479c-3.57 4.111-6.848 8.43-10.113 12.785-3.575 4.71-7.503 9.01-11.562 13.304a140 140 0 0 0-8.709 10.182c-2.911 3.74-5.837 6.66-9.625 9.5l-1-2c.68-.64 1.361-1.279 2.063-1.937 3.171-3.136 5.748-6.684 8.386-10.27L1893 240h2l1-3 2-1 1.625-3c2.727-4.958 6.56-8.863 10.375-13 4.988-5.491 4.988-5.491 9.313-11.5L1921 206h2l.188-1.812c.812-2.188.812-2.188 3.124-4 2.688-1.188 2.688-1.188 4.75-1"/><path fill="#4890B0" d="M551 297c-.548 3.736-1.912 5.107-4.812 7.438-3.164 2.64-5.68 5.277-8.188 8.562a449 449 0 0 1-5 5c-6.057 5.979-12.04 11.918-17.559 18.406-1.934 2.14-4.191 3.794-6.441 5.594-3.24 3.461-6.277 7.07-9.187 10.813-1.787 2.156-3.451 3.691-5.813 5.187h-2c.339-3.16.946-3.954 3.438-6.062.845-.64 1.69-1.28 2.562-1.938l2-3h2l2-4h2l.875-1.812C508 339 508 339 510 336h2v-2h2v-2a141 141 0 0 1 5-5l1.688-1.812C522 324 522 324 524 324l.813-1.937C526 320 526 320 529 319l.875-1.75c1.518-3.036 3.696-4.875 6.125-7.25q1.731-1.99 3.438-4c7.806-9 7.806-9 11.562-9"/><path fill="#EE9733" d="M490 162h2c.465 8.664.775 17.327 1 26l.11 3.442c.462 17.999.462 17.999-3.02 23.667-2.56 2.288-5.205 4.038-8.09 5.891a156 156 0 0 0-5.687 5.563l-2.754 2.773a183 183 0 0 0-8.317 9.3L464 240h-1v-5l3 1v-2h2l.8-1.797c1.244-2.283 2.504-3.677 4.387-5.453 3.279-3.176 6.282-6.506 9.239-9.98C484 215 484 215 486.375 213c3.91-4.811 2.747-13.53 2.688-19.496l-.012-2.649q-.019-4.146-.051-8.292-.038-5.498-.062-10.997l-.026-2.56c-.008-2.002.035-4.004.088-6.006z"/><path fill="#4995B6" d="m485 416 2 2c-5.448 6.112-11.648 10.27-18.477 14.668a73 73 0 0 0-6.207 4.488c-2.201 1.753-4.222 2.95-6.753 4.156l-2.602 1.262L450 444q-3.66 1.806-7.312 3.625l-3.489 1.727c-3.153 1.574-3.153 1.574-5.875 3.289-5.205 3.044-11.42 3.62-17.324 4.359v-2l3.418-1.145c21.737-7.51 41.795-18.49 59.531-33.164A142 142 0 0 1 485 416"/><path fill="#37748E" d="m229 342 1 3-1.206 1.199q-6.258 6.226-12.509 12.46l-4.658 4.638a5407 5407 0 0 0-6.725 6.703l-2.078 2.062a225 225 0 0 0-11.309 12.197 103 103 0 0 1-5.261 5.585l-1.846 1.836-1.845 1.82-1.928 1.914A2601 2601 0 0 1 176 400l-3-2z"/><path fill="#4689A7" d="m550 396 1 2c-14.018 20.589-31.14 39.853-51 55l-1-2c2.402-3.175 4.617-5.858 8-8h2l.77-1.797c1.366-2.447 2.747-3.696 4.918-5.453 3.604-3.043 6.655-6.298 9.71-9.883 2.094-2.44 4.228-4.696 6.602-6.867h2c.38-.828.38-.828.77-1.672 4.153-7.859 10.248-14.804 16.23-21.328"/><path fill="#E6AA5F" d="m489 213 2 1-1.358 1.342a4331 4331 0 0 0-6.204 6.158c-.705.696-1.41 1.392-2.135 2.11a224 224 0 0 0-11.728 12.594c-2.808 3.202-5.88 6.122-8.934 9.085-4.418 4.317-8.534 8.696-12.391 13.524-3.157 3.932-6.041 7.381-10.25 10.187l-3-1v-14h2v11c7.398-2.96 10.814-7.743 14-15h2l.773-1.83c1.372-2.426 2.564-3.36 4.86-4.904 4.663-3.353 8.386-7.282 12.242-11.516q2.088-2.257 4.18-4.512l2.03-2.193c3.862-4.124 7.877-8.094 11.915-12.045"/><path fill="#4087A5" d="m281 290 1 3-1.941 1.906c-3.989 3.947-7.942 7.863-11.559 12.156-2.466 2.885-5.073 5.402-7.93 7.899-6.31 5.628-12.243 11.602-18.195 17.601l-3.332 3.346A6180 6180 0 0 0 231 344l-1-3z"/><path fill="#F0BB57" d="m372.938 58.602 2.902-.01q3.03-.002 6.061.017c3.088.016 6.175 0 9.263-.02q2.949.004 5.899.013l2.79-.019c4.81.053 8.315.154 12.147 3.417.813 2.688.813 2.688 1 5l-2 1v-4c-6.54-1.661-12.376-2.652-19.125-1.437C389 63 389 63 386.949 62.539c-4.333-.792-8.615-.723-13.012-.727l-2.72-.037-2.627-.005-2.38-.013c-4.044.444-6.526 2.29-9.21 5.243.254-3.127.498-4.573 2.93-6.643 4.36-1.927 8.29-1.787 13.007-1.755"/><path fill="#40819D" d="m491 357 2 2-1.285 1.25-1.777 1.75-1.723 1.688c-1.824 1.904-3.531 3.84-5.242 5.843-5.339 6.141-11.214 11.767-17.003 17.478-5.375 5.31-10.693 10.608-15.556 16.401-1.92 2.16-4.083 3.894-6.414 5.59v-4c1.392-1.226 2.796-2.442 4.273-3.562 2.497-2.079 4.418-4.545 6.43-7.083L456 393h2l.688-1.687c1.693-2.985 3.828-4.94 6.312-7.313a765 765 0 0 0 3.688-3.625l1.761-1.727c1.754-1.772 1.754-1.772 3.551-4.648h2l2-4h2l2-4h2l.688-1.687c1.671-2.945 3.865-4.995 6.312-7.313"/><path fill="#489494" d="m1901 216 1 3-1.426 1.355c-3.477 3.377-6.12 6.452-8.574 10.645-2.211 2.778-4.451 5.525-7 8h-2l-1 3c-1.742 1.684-1.742 1.684-3.875 3.438-3.453 2.847-6.145 5.545-8.117 9.605-3.63 7.047-12.87 14.712-20.008 17.957 4.173-4.963 8.509-9.76 12.902-14.527a364 364 0 0 0 7.535-8.41c3.621-4.18 7.388-8.22 11.15-12.272 2.792-3.015 5.542-6.053 8.226-9.166 2.782-3.227 5.738-6.223 8.804-9.18 1.492-1.416 1.492-1.416 2.383-3.445"/><path fill="#EAAB53" d="M357 242h2c1.332 1.46 1.332 1.46 2.813 3.375 2.555 3.1 4.387 4.26 8.187 5.625a142 142 0 0 1 5 5l2.313 1.688L379 259v2l1.75.75c3.38 1.878 5.618 4.11 7.496 7.496 2.202 3.458 4.845 6.137 7.754 9.004l1.617 1.64c2.43 2.418 4.088 4.012 7.383 5.11l2.5 2.563c2.276 2.786 2.276 2.786 5.5 2.437l-1 3c-4.496-1.43-7.461-3.925-10.812-7.125l-1.595-1.491c-3.655-3.436-7.208-6.968-10.722-10.548-1.95-1.914-3.98-3.688-6.058-5.461-2.778-2.38-5.008-4.829-7.274-7.71-2.953-3.194-6.48-5.767-9.867-8.481-3.14-2.567-5.955-5.174-8.672-8.184z"/><path fill="#4692B4" d="M576 341h2c-1.294 6.67-3.226 12.592-5.937 18.813l-1.177 2.722C566.549 372.35 561.471 381.773 556 391l-1.107 1.895c-1.03 1.671-1.03 1.671-2.893 4.105h-3c1.125-2.972 2.223-5.334 4-8h2l.34-2.2c.694-2.946 1.711-4.998 3.222-7.613C565.48 366.814 571.303 354.382 576 341"/><path fill="#80BC61" d="M597 141c-1.315 2.918-2.716 4.95-5.012 7.172l-1.785 1.75-1.89 1.828c-4.346 4.266-8.543 8.543-12.477 13.195-2.956 3.309-6.135 6.397-9.311 9.493a138 138 0 0 0-7.873 8.406c-3.829 4.427-7.928 8.544-12.09 12.656l-2.216 2.203q-2.67 2.652-5.346 5.297c0-3.927 1.279-4.819 3.875-7.687l2.18-2.45C547 191 547 191 549 191v-2h2l.688-1.687c1.688-2.975 3.779-5.033 6.312-7.313h2l.813-1.766c1.202-2.262 2.525-4.04 4.187-5.984l1.563-1.86C568 169 568 169 570 169l1-3a141 141 0 0 1 5-5l2.375-2.375 6.188-6.187 1.789-1.801a155 155 0 0 1 4.086-3.887c1.895-1.732 1.895-1.732 1.562-4.75 3-1 3-1 5-1"/><path fill="#4899BE" d="m518 286 1 3-10.45 10.45-1.845 1.847a1010 1010 0 0 1-4.346 4.308c-2.562 2.601-4.989 5.298-7.421 8.02-5.61 6.21-11.68 11.827-17.938 17.375 0-3 0-3 1.32-4.648l1.805-1.727 1.934-1.86a115 115 0 0 1 5.128-4.39c3.362-2.838 5.922-5.704 7.997-9.594 2.45-3.752 5.49-6.666 8.691-9.781l1.855-1.828q1.797-1.77 3.601-3.531a334 334 0 0 0 4.49-4.516C516 287 516 287 518 286"/><path fill="#E5A257" d="m252 235 2 1a1068 1068 0 0 1-15.977 19.225 357 357 0 0 0-8.148 9.963c-2.698 3.409-5.507 6.663-8.437 9.875-3.395 3.725-6.546 7.547-9.598 11.554-3.509 4.545-7.188 8.953-10.84 13.383l-3-1v-3l1.676-.133c3.461-1.291 5.264-3.94 7.512-6.742l1.469-1.784A778 778 0 0 0 213 282l4.375-5.375 2.188-2.691c2.88-3.467 5.843-6.855 8.812-10.247a372 372 0 0 0 13.928-16.948c3.12-4.023 6.333-7.92 9.697-11.739"/><path fill="#478EAE" d="m1949 265 10 3v4l-1.62.61q-3.63 1.376-7.255 2.765l-2.55.96-2.442.938-2.254.857c-2.063.824-2.063.824-3.879 2.87a168 168 0 0 0-1.937 8.188c-1.182 5.606-2.643 10.606-5.063 15.812l-3-1 1.375-2.43c2.23-4.9 3.082-9.849 4.086-15.113 1.525-7.488 1.525-7.488 4.539-10.457 5.139-2.672 10.335-3.908 16-5-2.19-2.291-4.095-3.698-7-5z"/><path fill="#579363" d="M294 241c0 3.592-.99 4.34-3.427 6.8l-1.53 1.498-1.596 1.597a1208 1208 0 0 1-5.26 5.21l-3.632 3.62c-3.189 3.178-6.387 6.346-9.587 9.513q-4.892 4.851-9.773 9.713Q249.61 288.487 240 298l-3-1 1.875-.75c2.262-1.071 2.262-1.071 3.125-3.25 1.264-2.528 2.528-2.764 5-4 .685-1.324 1.349-2.66 2-4 4.333-4.778 4.333-4.778 8-6v-2c4.302-4.767 4.302-4.767 8-6v-2a263 263 0 0 1 5-4l1-2h2v-2c1.504-1.48 1.504-1.48 3.563-3.187 4.024-3.42 7.746-7.04 11.437-10.813q1.435-1.44 2.875-2.875L293 242z"/><path fill="#316A7D" d="m1815 310 2 1-9 8 1 4-1.39 1.038q-3.15 2.355-6.297 4.712l-2.186 1.633-2.139 1.601-2.087 1.557c-1.624 1.246-3.186 2.572-4.733 3.912L1788 339l-3-1c3.24-4.152 6.66-7.522 10.672-10.922 3.377-3.014 6.516-6.255 9.647-9.522 1.19-1.222 2.432-2.394 3.681-3.556h2l1-3z"/><path fill="#397996" d="m498 450 2 1c-12.823 14.15-32.656 23.663-50 31l-1-3h4v-2q3.151-1.509 6.313-3l3.55-1.687C466 471 466 471 469 471v-2c1.434-1.113 1.434-1.113 3.438-2.312l2.19-1.313L477 464l2.465-1.437C485.709 459 485.709 459 488 459v-2h3v-2c1.531-1.29 1.531-1.29 3.5-2.625l1.969-1.352z"/><path fill="#55A69B" d="m1947 163 3 1c.185 9.41.185 9.41-1 14h-2l-1-6-1.285 1.32c-3.51 3.564-7.081 6.943-10.942 10.125-4.52 3.964-8.544 8.427-12.585 12.868l-1.522 1.666q-1.834 2.01-3.666 4.021c0-4.213 1.841-5.342 4.688-8.375l2.636-2.836a354 354 0 0 1 9.668-9.71c8.474-8.039 8.474-8.039 14.008-18.079"/><path fill="#88B665" d="m1915 185 2 3c-.568.63-1.137 1.258-1.723 1.906-3.578 3.967-7.152 7.933-10.652 11.969-16.387 18.788-16.387 18.788-21.625 23.125h-2c1.417-3.252 3.125-5.314 5.688-7.75 3.285-3.204 6.34-6.504 9.328-9.984 1.99-2.272 4.034-4.488 6.09-6.7 4.627-4.978 8.95-10.022 12.894-15.566"/><path fill="#46896F" d="m1808 309 3 1c0 4 0 4-1.363 5.535l-1.95 1.527c-4.307 3.53-8.158 7.366-12.005 11.382-1.191 1.221-2.433 2.393-3.682 3.556h-2l-.875 1.75L1786 340l-3-1c3.875-5.44 8.108-10.402 12.613-15.328 3.34-3.738 6.488-7.621 9.637-11.52C1807 310 1807 310 1808 309"/><path fill="#5DA375" d="m1883 234 2 1-1.234 1.31c-7.676 8.154-15.316 16.328-22.766 24.69l-5.062 5.625-2.286 2.54L1852 271l-1-2a348 348 0 0 1 2.813-4.5l1.582-2.531L1857 260h3l.813-1.75c1.216-2.306 2.49-4.27 4.187-6.25h2l.816-1.734c1.218-2.33 2.575-4.39 4.121-6.516l1.528-2.14L1875 240h3l1-3c2.063-1.687 2.063-1.687 4-3"/><path fill="#579DBD" d="M1922.867 221.45c3.31 2.405 4.55 5.717 6.258 9.363.347.712.694 1.424 1.05 2.158 5.255 10.88 5.255 10.88 3.825 17.029h-1l-.55-2.484-.763-3.266-.738-3.234c-.767-3.02-.767-3.02-2.554-5.157C1927 234 1927 234 1927 230l-3-1-2-3-6 7-1-2-2-1a729 729 0 0 1 2.875-3.937l1.617-2.215c1.777-2.177 2.555-3.077 5.375-2.399"/><path fill="#326E86" d="M1852 290c2.75 2.313 2.75 2.313 5 5v4h-2l-4-7c-4.17.554-6.943 3.02-10.125 5.563l-1.73 1.355c-4.358 3.423-8.663 6.91-12.977 10.387-2.637 2.061-5.34 3.909-8.168 5.695 1.382-4.697 3.536-6.543 7.5-9.312l2.969-2.114C1831 302 1831 302 1833 302l1-3c1.742-1.5 1.742-1.5 3.875-3 2.06-1.459 3.94-2.809 5.695-4.625 2.726-2.622 5.106-2.744 8.43-1.375"/><path fill="#73A864" d="m448 274 2 1a2699 2699 0 0 1-8.435 8.545q-1.437 1.452-2.87 2.91c-1.37 1.395-2.747 2.782-4.125 4.17l-2.507 2.54C430 295 430 295 428 295c1.38-3.101 2.968-5.215 5.371-7.602l1.99-1.984 2.077-2.039 2.064-2.062c2.754-2.73 5.26-5.154 8.498-7.313m-22 22 2 2a991 991 0 0 1-4.75 4.875l-2.672 2.742c-2.194 2.028-3.845 3.272-6.578 4.383 1.587-3.903 4.134-6.335 7.125-9.25l2.758-2.703z"/><path fill="#81B169" d="m474 245 2 1h-3zm-2 2 3 2q-5.19 5.3-10.406 10.571a1094 1094 0 0 0-3.536 3.597c-1.693 1.73-3.396 3.45-5.101 5.168l-1.579 1.626c-2.923 2.925-5.4 4.83-9.378 6.038 3.322-4.004 6.732-7.783 10.438-11.437 3.504-3.458 6.783-7.031 9.988-10.766 2.087-2.383 4.3-4.592 6.574-6.797"/><path fill="#2D6984" d="M198 375c-1.394 4.286-3.369 6.723-6.57 9.863l-2.715 2.686-2.84 2.764q-1.433 1.41-2.863 2.822-3.495 3.442-7.012 6.865l-3-2q4.85-4.923 9.717-9.827 1.655-1.67 3.305-3.346c1.58-1.604 3.165-3.2 4.751-4.796l1.494-1.524C195.772 375 195.772 375 198 375"/><path fill="#4F9BBE" d="M1931.063 199.188A69 69 0 0 1 1937 202v3c3.629.151 3.629.151 7-1v5c-1.785.719-1.785.719-4 1-1.98-1.665-3.472-3.542-5.121-5.531-1.808-1.728-1.808-1.728-4.363-1.442-3.032 1.173-4.294 2.523-6.329 5.036l-1.832 2.222L1921 212l-2-2 2-4h2l.188-1.812c.812-2.188.812-2.188 3.124-4 2.688-1.188 2.688-1.188 4.75-1"/><path fill="#40819F" d="m527 423 2 1c-8.1 11.249-18.17 20.437-29 29l-1-2c2.402-3.175 4.617-5.858 8-8h2l.77-1.797c1.366-2.447 2.747-3.696 4.918-5.453 4.23-3.567 7.756-7.524 11.312-11.75z"/><path fill="#4394B9" d="M475 331c0 3 0 3-1.531 4.824l-1.969 1.863-1.969 1.887L468 341c0-3 0-3 1.531-4.824l1.969-1.863 1.969-1.887zm-11 10 3 1-1.358 1.342a4331 4331 0 0 0-6.204 6.158c-.705.696-1.41 1.392-2.135 2.11-4.11 4.09-7.999 8.258-11.678 12.744-1.746 1.768-3.355 2.667-5.625 3.646 1.352-3.03 2.855-5.085 5.23-7.39l1.926-1.891 2.031-1.969c5.169-5.08 10.158-10.187 14.813-15.75"/><path fill="#F19832" d="M242 244h2c-1.527 3.427-3.543 6.058-5.937 8.938l-2.422 2.917Q234.32 257.43 233 259l-1.4 1.667A2181 2181 0 0 1 216 279l-1-3 2-1 1-3c1.438-1.687 1.438-1.687 3-3h2c1.671-2.962 2.327-5.37 2.625-8.75l.227-2.422L226 256h1v5c3.89-2.851 6.471-5.778 9.188-9.75A103 103 0 0 1 240 246h2z"/><path fill="#7CAC67" d="M297 200c-1.285 2.867-2.571 4.976-5 7h-2c3.138-7 3.138-7 7-7m-8 7c0 3.757-1.02 4.588-3.375 7.438-2.29 2.784-4.027 5.348-5.625 8.562-6.49 8.664-6.49 8.664-12 10 4.262-5.798 8.72-11.4 13.313-16.937l1.916-2.323c4.611-5.58 4.611-5.58 5.771-6.74"/><path fill="#2E6782" d="M219 404c2.899 1.305 4.889 2.669 7.066 4.977l1.706 1.772 1.79 1.876C235.318 418.53 241.15 423.391 248 428q2.011 1.487 4 3l-1 2c-4.823-2.554-8.165-5.064-12-9l-2.812-1.687L234 421v-2h-2l-1.437-1.937c-1.472-2.347-1.472-2.347-4.563-3.063v-2h-2c-1.625-1.312-1.625-1.312-3-3v-3h-2z"/><path fill="#3D7F9B" d="m255 316 2 2-26 26-1-3z"/><path fill="#6FB278" d="m1903 211 3 1-1.19 1.266q-2.719 2.896-5.435 5.797l-1.871 1.99A342 342 0 0 0 1886 234l-1-4 3-1a70 70 0 0 0 1-4l2-1c1.134-2.017 1.134-2.017 2-4h2l.625-1.687c1.98-3.329 4.215-5.056 7.375-7.313"/><path fill="#EFBC5E" d="M291 183c4.077-.32 6.32-.438 9.813 1.813C303.57 187.57 305 189.015 305 193c-3.817-1.555-6.192-4.036-9-7-5.146 1.946-7.654 6.433-10.879 10.664L283 199h-3l1.645-1.977C287.03 190.45 287.03 190.45 291 183"/><path fill="#539566" d="m1826 288 1 3c-1.437 2.188-1.437 2.188-3 4l1 2h-2v2c-1.645 1.332-1.645 1.332-3.812 2.813-3.315 2.387-5.416 4.421-7.188 8.187l-3-1c1.34-2.919 2.855-5.19 4.969-7.602l1.73-1.984 1.801-2.039 1.8-2.062c2.186-2.496 4.354-4.967 6.7-7.313"/><path fill="#529164" d="m445 324 2 2-2.092 2.076a6390 6390 0 0 0-7.777 7.738l-3.349 3.329c-8.554 8.486-8.554 8.486-16.493 17.546L416 358h-2l1-3h2l.836-1.793c3.131-5.936 8.237-10.234 13.285-14.516 1.691-1.522 3.091-3.04 4.504-4.816 1.846-2.234 3.414-3.833 5.625-5.625 2.774-1.956 2.774-1.956 3.75-4.25"/><path fill="#397894" d="m465 384 3 1-2.379 2.344c-5.249 5.196-10.365 10.4-15.152 16.031-1.95 2.158-4.12 3.917-6.469 5.625v-4c1.392-1.226 2.796-2.442 4.273-3.562 2.497-2.079 4.418-4.545 6.43-7.083L456 393h2l.688-1.687c1.671-2.945 3.865-4.995 6.312-7.313"/><path fill="#4A95B7" d="M551 297c-.548 3.736-1.912 5.107-4.812 7.438-3.164 2.64-5.68 5.277-8.188 8.562-2.804 3.015-5.158 5.435-9 7 .478-4.3 2.934-6.134 6-9 3.43-3.336 6.792-6.66 9.813-10.375C547.833 297 547.833 297 551 297"/><path fill="#4289A9" d="M446 443c-1.62 4.861-6.218 6.119-10.57 8.352-6.378 3.065-12.406 4.9-19.43 5.648v-2l1.601-.563c12.861-4.39 12.861-4.39 24.903-10.59C444 443 444 443 446 443"/><path fill="#E29E56" d="m305 192 2.125 2.25c2.723 2.788 2.723 2.788 5.75 4.563 3.427 2.398 5.713 5.048 8.398 8.218 3.626 4.134 7 7.464 12.727 7.969l-1 4c-3.002-1.365-5.269-2.94-7.719-5.14l-2.105-1.885L321 210l-2.145-1.928a789 789 0 0 1-6.355-5.822l-2.203-1.996-2.078-1.926-1.877-1.722C305 195 305 195 305 192"/><path fill="#3A7D97" d="M1906 304h3c-1.256 6.438-5.103 9.138-10 13l-2.387 1.965c-6.593 5.329-6.593 5.329-10.613 6.035 1.145-3.434 2.184-3.858 5.117-5.707 5.036-3.459 10.031-7.556 13.258-12.793z"/><path fill="#CF9051" d="M379 264c4.181 1.673 7.155 4.708 10.375 7.75l1.672 1.555a226 226 0 0 1 8.18 8.023c2.544 2.835 2.544 2.835 5.773 3.672l2.5 2.563c2.276 2.786 2.276 2.786 5.5 2.437l-1 3c-4.496-1.43-7.461-3.925-10.812-7.125l-1.595-1.491c-3.649-3.43-7.195-6.955-10.702-10.529-2.691-2.64-5.543-5.076-8.422-7.507L379 265z"/><path fill="#4C90AB" d="m1903 230 2 1-1.687 1.836c-3.993 4.384-7.86 8.794-11.5 13.476-2.982 3.795-5.958 6.797-9.813 9.688l-1-2c.68-.64 1.361-1.279 2.063-1.937 3.171-3.136 5.748-6.684 8.386-10.27L1893 240h2l1-3 2-1 .938-1.937C1900 232 1900 232 1903 230"/><path fill="#4589A7" d="M511 337c0 4.213-1.841 5.342-4.687 8.375l-2.637 2.836c-7.926 8.261-7.926 8.261-11.676 9.789.339-3.16.946-3.954 3.438-6.062.845-.64 1.69-1.28 2.562-1.938l2-3h2l2-4h2l.813-1.875C508 339 508 339 511 337"/><path fill="#5498B7" d="M494 309c0 5.222-4.488 8.416-8 12-1.94 1.742-3.92 3.423-5.91 5.105-4.88 4.423-9.436 9.414-13.09 14.895l-2-1c2.324-2.675 4.66-5.34 7-8l2.293-2.617 2.332-2.633 2.164-2.453c2.258-2.346 4.67-4.268 7.211-6.297a107 107 0 0 0 3.75-4.187l1.797-2.106L493 310z"/><path fill="#459BC2" d="m552 297 3 1c-4.7 23.133-4.7 23.133-9 26 1.472-9.141 3.685-18.045 6-27"/><path fill="#2A657F" d="M181 413c4.623 1.224 6.649 3.638 9.535 7.215 1.55 1.955 1.55 1.955 3.903 4.16 3.529 3.615 6.518 7.599 9.562 11.625-3 0-3 0-5.637-2.527a313 313 0 0 1-3.05-3.41l-1.605-1.783a786 786 0 0 1-3.2-3.582 618 618 0 0 0-4.074-4.53C181 414.151 181 414.151 181 413"/><path fill="#7DBB61" d="m538 203-2 4h-2l-.744 1.734c-1.469 2.65-3.187 4.407-5.354 6.524l-2.427 2.394-2.538 2.473q-2.49 2.438-4.972 4.883l-2.23 2.176c-1.805 1.711-1.805 1.711-2.735 3.816h-2c1.498-3.542 3.55-5.728 6.313-8.375 2.605-2.543 5.143-5.046 7.437-7.875 2.27-2.774 4.684-5.25 7.25-7.75l2.188-2.312C536 203 536 203 538 203"/><path fill="#3C8789" d="M1868 253h3c-3.607 8.037-13.041 16.382-21 20 5.751-6.84 11.677-13.677 18-20"/><path fill="#50A3B5" d="m1947 163 3 1c.185 9.41.185 9.41-1 14h-2l-1-6-5 4 .875-1.687c1.162-2.319 1.162-2.319 2.125-4.813a73 73 0 0 1 3-6.5"/><path fill="#3D7B96" d="m1927 307 2 1c-1.341 9.573-9.66 17.182-16 24l-1-3c2.313-3.187 2.313-3.187 5-6h2l.75-2.062c1.492-3.507 3.318-6.654 5.25-9.938h2z"/><path fill="#DB9653" d="m489 213 2 1-1.358 1.342a4331 4331 0 0 0-6.204 6.158c-.705.696-1.41 1.392-2.135 2.11-4.116 4.096-8.053 8.283-11.83 12.695-1.734 1.995-3.567 3.865-5.473 5.695.587-3.243 1.547-4.944 3.809-7.32l1.751-1.86c.62-.641 1.24-1.284 1.877-1.945l1.901-2.002A648 648 0 0 1 489 213"/><path fill="#539061" d="M1870 203c5.955.392 10.628 1.371 16 4-1.455 3.396-2.92 5.893-6 8-2.886-.276-5.219-1.073-8-2v-2l3.25.063c2.898-.049 5.036-.195 7.75-1.063l-1-2c-2.025-.652-2.025-.652-4-1v-2l-2.875.125C1872 205 1872 205 1870 203"/><path fill="#316D87" d="M1911 330c0 3 0 3-2.625 5.688C1903.587 339.607 1894.319 347 1888 347v-2c3-2 3-2 6-2v-2c.695-.235 1.39-.47 2.105-.71 3.442-1.534 6.254-3.618 9.207-5.915l1.667-1.273A817 817 0 0 0 1911 330"/><path fill="#F1A840" d="M437 235h1l.044 2.447c.074 3.643.171 7.285.269 10.928l.068 3.852.107 3.671.08 3.396L439 262l3 2-5 1c-.848-6.877-1.109-13.704-1.125-20.625l-.014-2.443c.015-5.808.015-5.808 1.139-6.932"/><path fill="#79A86A" d="m1880 224 2 2-4 4-2-1zm-5 6v3c-2.5 2.188-2.5 2.188-5 4 1.293-2.884 2.66-4.872 5-7m-8 9 1 3-9 9-1-3z"/><path fill="#F3A137" d="M200 259h1q.252 6.54.482 13.08.08 2.224.166 4.45.122 3.196.23 6.396l.144 3.888C202 290 202 290 201 293l2-1 1-3 3 1a858 858 0 0 1-2.937 3.5l-1.653 1.969L201 297h-1z"/><path fill="#6AAD79" d="m1883 234 2 1c-2.429 2.654-4.87 5.297-7.312 7.938l-2.092 2.287-2.022 2.177-1.856 2.016C1870 251 1870 251 1867 252c1.398-2.97 3.006-5.596 4.938-8.25l1.527-2.14L1875 240h3l1-3c2.063-1.687 2.063-1.687 4-3"/><path fill="#2F7172" d="M1802 321c0 4.27-2.301 5.829-5 9v2c-1.863 1.762-1.863 1.762-4.312 3.688l-2.426 1.949L1788 339l-3-1c3.364-4.31 6.97-7.84 11.129-11.387 2.06-1.776 3.987-3.65 5.871-5.613"/><path fill="#ED9A39" d="M253 221h2c.135 2.082.232 4.166.313 6.25l.175 3.516C255 234 255 234 252.656 236.219L250 238c-1.565 1.641-1.565 1.641-2.812 3.25L245 244c0-3 0-3 1-5h2v-3c1.438-1.562 1.438-1.562 3-3 1.217-2.434 1.32-4.418 1.563-7.125l.253-2.758z"/><path fill="#73A764" d="m1805 206 1 3-2 2-3-1zm-7 7 1 2-2-1zm-3 3 1 3c-1.75 2.438-1.75 2.438-4 5l-1.625 2.313L1789 228h-2c1.51-4.98 4.557-8.243 8-12m-9 12 1 2-2-1z"/><path fill="#8FBC63" d="M520 163h3v5l2.375.75c2.948 1.404 3.527 2.257 4.625 5.25h2v2h2v2h2v3h-2c-1.445-1.504-1.445-1.504-3.125-3.562-3.612-4.266-7.584-7.871-11.875-11.438z"/><path fill="#316C84" d="m1819 322 3 1c-2.207 2.377-4.262 4.169-7 5.938-3.015 2.072-4.87 4.114-7 7.062l-3-1c1.531-4.137 4.505-6.278 7.938-8.812l1.63-1.272c1.584-1.186 1.584-1.186 4.432-2.916"/><path fill="#377388" d="M1873 305h2c.882 5.735-1.499 8.77-4.687 13.242L1869 320l-3-1c-1.687-3.562-1.687-3.562-3-7h2v2h2l1 3c3.436-5.637 3.436-5.637 5-12"/><path fill="#EC9434" d="m387 268 3 1v2h3l.75 1.875c1.052 2.248 1.052 2.248 3.125 3 2.58 1.366 3.694 2.881 5.375 5.25l1.578 2.195L405 285c-3.393-.584-5.04-1.664-7.453-4.09l-1.875-1.877-1.922-1.97-1.969-1.96C387 270.268 387 270.268 387 268"/><path fill="#8AB869" d="m1888 195 6 3c-1.668 3.941-4.227 6.79-7 10l-9-4 4-1 1 2 6-2 1-5-2-1z"/><path fill="#5099BA" d="M1935 251h2l.375 1.828c1.234 4.984 1.234 4.984 4.605 8.66 1.982.965 3.934 1.803 6.02 2.512v2c-2.763-.523-5.326-1.109-8-2v-2l-3-1c-1.522-3.604-2-6.052-2-10"/><path fill="#EDA94D" d="M463 240c0 3 0 3-2.3 5.664q-1.495 1.493-3.012 2.961l-1.514 1.523c-2.369 2.335-3.979 3.787-7.174 4.852l2-5h2l.742-1.797c1.468-2.57 2.98-3.748 5.383-5.453l2.195-1.578z"/><path fill="#79B863" d="m509 231 2 1c-5.918 7.085-12.431 13.528-19 20 0-3.74.934-4.453 3.375-7.187l1.898-2.168C499 241 499 241 501 241v-2c1.496-1.437 1.496-1.437 3.438-3 2.714-2.145 2.714-2.145 4.562-5"/><path fill="#519FC5" d="m504 299 3 1c-2.325 4.521-4.946 7.044-9 10h-3c1.408-3.215 3.103-5.322 5.625-7.75l1.914-1.86z"/><path fill="#4388A6" d="m1935 285 2 1c-.454 7.03-2.12 12.585-5 19l-3-1 1.313-2.187c2.649-5.211 3.5-11.136 4.687-16.813"/><path fill="#5297B6" d="m1949 265 10 3v4l-8 2v-2l4-1c-2.128-2.34-4.116-3.707-7-5z"/><path fill="#4F8D7A" d="m1796 323 2 1c-1.44 3.362-3.248 5.592-6 8h-2l-.875 1.75L1786 340l-3-1c4.061-5.594 8.38-10.86 13-16"/><path fill="#35738E" d="M467 473c-3.325 2.74-6.83 4.424-10.75 6.188-1.17.53-2.34 1.06-3.547 1.605L450 482l-1-3h4v-2a496 496 0 0 1 5.313-2.562l2.988-1.442C464 472 464 472 467 473"/><path fill="#4E8F67" d="m173 349 2 1c-3.156 4.508-6.31 8.912-10 13h-2c1.564-3.522 3.695-6.271 6.125-9.25l2.195-2.703zm-11 14v3h-3z"/><path fill="#296781" d="M216 447h2v2l2.375.938C223 451 223 451 225 452v2l1.688.75c2.712 1.466 4.948 3.28 7.312 5.25l-2 1c-2.674-1.948-5.338-3.91-8-5.875l-2.312-1.684-2.188-1.62-2.031-1.492L216 449z"/><path fill="#37768D" d="M1852 290c2.75 2.313 2.75 2.313 5 5v4h-2l-4-7c-2.929.628-5.361 1.586-8 3l-1-2c3.056-3.347 5.616-4.805 10-3"/><path fill="#7CAC6D" d="M343 244c4.546 3.822 8.982 7.754 13.375 11.75l1.624 1.466c3.884 3.55 3.884 3.55 5.001 5.784-4.696-2.127-7.969-5.438-11.687-8.937l-2.088-1.92-1.987-1.858-1.811-1.691C344 247 344 247 343 244"/><path fill="#8FBC61" d="m564 150 1 3q-3.124.97-6.25 1.938l-3.516 1.09c-2.405.723-4.79 1.397-7.234 1.972l-1-3z"/><path fill="#306A84" d="M307 333c5.75 1.875 5.75 1.875 8 3l2 4 2 1c.727 1.979 1.398 3.98 2 6-4.894-4.095-9.707-8.264-14-13z"/><path fill="#83B26B" d="M297 200c-1.285 2.867-2.571 4.976-5 7h-2c3.138-7 3.138-7 7-7m-8 7c0 3.344-.475 4.068-2.375 6.688l-1.336 1.886L284 217h-2c1.668-3.941 4.227-6.79 7-10"/><path fill="#276A71" d="m1815 310 2 1-13 12-1-3a376 376 0 0 1 2.875-3l1.617-1.687C1809 314 1809 314 1811 314l1-3z"/><path fill="#73A768" d="M258 244h2v2h-2zm-2 3 1 4c-1.215 1.703-1.215 1.703-2.937 3.25l-1.715 1.578L251 257l-2-1zm-8 10v3h-3z"/><path fill="#589662" d="M559 207c0 3 0 3-2.555 5.918a335 335 0 0 1-3.32 3.27l-1.684 1.693C547.267 222 547.267 222 545 222c1.338-3.065 2.71-4.854 5.313-6.937 3.088-2.54 5.903-5.195 8.687-8.063"/><path fill="#549851" d="M1853 201v2c-1.013.09-1.013.09-2.047.184l-2.703.254c-.882.08-1.763.162-2.672.246-2.279.28-4.363.735-6.578 1.316-2.33.35-4.664.686-7 1l1-2c6.523-2.06 13.154-3.478 20-3"/><path fill="#36758E" d="M1853 331h14l1 2c-1.728.197-3.458.382-5.187.563l-2.918.316c-2.837.119-5.15-.201-7.895-.879z"/><path fill="#589668" d="M195 322h2v3l-4 1zm-3 4c0 3.396-.522 4.066-2.5 6.688l-1.406 1.886L187 336l-3-1z"/><path fill="#EC912C" d="M411 265h2v11h-3a758 758 0 0 1-.062-4.937l-.036-2.778C410 266 410 266 411 265"/><path fill="#45839B" d="M1882 255c0 4.138-1.715 5.21-4.5 8.188l-2.531 2.73L1873 268l-1-2a575 575 0 0 1 3.313-4.937l1.863-2.778C1879 256 1879 256 1882 255"/><path fill="#72B681" d="m1903 211 3 1-12 13c0-3 0-3 2.375-5.375L1899 217a88 88 0 0 0 2-5z"/><path fill="#4FA09B" d="m1914 202 1 2c-1.125 3.376-2.16 4.284-4.812 6.563l-2.083 1.816c-1.97 1.517-3.845 2.6-6.105 3.621 3.39-4.693 6.784-9.025 11-13z"/><path fill="#EE9A3C" d="M316 201q1.909 1.402 3.813 2.813l2.144 1.582c1.843 1.448 3.507 2.836 5.043 4.605v2l3 1-1 2-3-2v-2l-1.625-.625c-3.295-1.908-5.969-4.423-8.375-7.375z"/><path fill="#4FA0C3" d="m1946 182 2 1-2 14h-2q.21-3.47.438-6.937c.08-1.288.162-2.576.246-3.903C1945 183 1945 183 1946 182"/><path fill="#44A2C0" d="M1937 179c0 3.74-.92 4.409-3.375 7.125l-1.898 2.133C1930 190 1930 190 1928 191c1.444-3.239 3.258-5.62 5.625-8.25l1.914-2.14z"/><path fill="#4D8C66" d="M181 353c-1.477 3.452-3.438 5.65-6.125 8.25l-2.195 2.14L171 365l-2-1c9.27-11 9.27-11 12-11"/><path fill="#F2A23B" d="m225 265 1 2a1064 1064 0 0 1-3.812 4.875l-2.145 2.742C218 277 218 277 215 279v-3l2-1 1-3c1.438-1.687 1.438-1.687 3-3h2z"/><path fill="#4B8A64" d="m1808 309 3 1a271 271 0 0 1-2.812 3.5l-1.583 1.969C1805 317 1805 317 1802 317c3.75-5.75 3.75-5.75 6-8"/><path fill="#367590" d="M1906 304h3c-.875 3.282-1.509 5.509-3.937 7.938-.681.35-1.362.7-2.063 1.062l-3-1a307 307 0 0 1 2.813-4l1.582-2.25z"/><path fill="#83B36E" d="M303 206c4.555 3.8 8.953 7.657 13 12v2c-3.404-1.135-4.243-2.172-6.5-4.875-2.503-2.979-2.503-2.979-5.219-5.758C303 208 303 208 303 206"/><path fill="#337491" d="M318 460q2.126.214 4.25.438l2.39.246c2.184.292 4.237.737 6.36 1.316v2a1013 1013 0 0 1-4.812-.437l-2.708-.247C321 463 321 463 318 462z"/><path fill="#EFA043" d="m490 181 3 1v6h-4c-.043-2-.04-4 0-6z"/><path fill="#4898BB" d="M1920 211c-1.506 3.833-3.768 5.538-7 8a178 178 0 0 0-4 4c1.23-4.51 5.78-12 11-12"/><path fill="#7BB05D" d="m468 253 2 1-8 8-2-2z"/><path fill="#4C904C" d="M1870 203c5.664.365 10.007 1.055 15 4l-2 2-5-2v-2l-2.875.125C1872 205 1872 205 1870 203"/><path fill="#77BA7D" d="M1916 195h3c-1.41 3.039-3.089 5.594-5.125 8.25l-1.633 2.14L1911 207c0-3.444.796-4.748 2.5-7.687l1.406-2.45z"/><path fill="#469EC6" d="m518 286 1 3-5 4c0-3 0-3 2-5.187z"/><path fill="#20536E" d="m413 492-1 4h-7v-2c5.75-2 5.75-2 8-2"/><path fill="#508568" d="M147 385v3c-1.531 1.387-1.531 1.387-3.5 2.688l-1.969 1.324L140 393v-3c2.233-1.998 4.317-3.658 7-5"/><path fill="#7CB96B" d="m1899 214 1 3-7 7-1-3 3-1c1.092-1.933 1.092-1.933 2-4z"/><path fill="#8EB966" d="m1905 175 4 2v3l3 1-2 2-6-7z"/><path fill="#2F708D" d="M447 481v2c-6.625 3-6.625 3-10 3v-2c3.73-2.034 5.67-3 10-3"/><path fill="#2D6883" d="M1859 366c.688 1.688.688 1.688 1 4-1.437 2.75-1.437 2.75-3 5l-3-2 1-3h2z"/><path fill="#EC9941" d="M492 210c-1.117 3.35-1.747 3.793-4.562 5.688l-1.942 1.324L484 218c.599-3.202.913-3.92 3.438-6.25C490 210 490 210 492 210"/><path fill="#D59957" d="M305 192c3.596 3.494 6.835 7.111 10 11-3.215-1.408-5.322-3.103-7.75-5.625l-1.86-1.914L304 194z"/><path fill="#F09C3C" d="M307 192h2c1.508 1.75 1.508 1.75 3.125 4l1.633 2.25L315 200c-3.78-.778-5.514-1.981-8-5z"/><path fill="#51A2C8" d="M548 313h2c-.087 1.46-.195 2.918-.312 4.375l-.176 2.46C549 322 549 322 546 324z"/><path fill="#579FC0" d="M510 281h2v2l6 1c-1.625 1.125-1.625 1.125-4 2-3.25-.875-3.25-.875-6-2z"/><path fill="#F2A039" d="m213 279 2 1-7 9-1-3c1.215-1.824 1.215-1.824 2.938-3.687l1.714-1.887z"/><path fill="#95BA6F" d="M520 163h3v5h2l-1 3-5-5z"/><path fill="#2E7290" d="M332 463h7v3l-8-1z"/><path fill="#7AAA6C" d="M1802 300h2c-.306 3.674-.758 4.781-3.562 7.313L1798 309v-3l3-2c.724-2.06.724-2.06 1-4"/><path fill="#85C165" d="M545 193h2c-1.382 3.21-2.924 5.05-5.625 7.25l-1.914 1.578L538 203c1.85-3.94 4.076-6.783 7-10"/><path fill="#EDB959" d="M249 155c2.438.75 2.438.75 5 2 .813 2.125.813 2.125 1 4h-3c-3-3.333-3-3.333-3-6"/><path fill="#74A869" d="m420 302 1 3-6 5c0-3 0-3 2.5-5.687z"/><path fill="#EE9B43" d="M397 279c3.255.349 4.019 1.021 6.25 3.563L405 285c-3.255-.349-4.019-1.021-6.25-3.562z"/><path fill="#F2B14E" d="m359 243 5 2v2l3 1v2c-3.795-1.491-5.61-3.757-8-7"/><path fill="#4B9FC5" d="M1920 224h2c-1.555 3.817-4.036 6.192-7 9 .613-2.962 1.254-4.38 3-7h2z"/><path fill="#87B46F" d="m1886 218 2 1a159 159 0 0 1-5 6h-2c1.293-2.884 2.66-4.872 5-7"/><path fill="#88BA68" d="M1944 164c-.375 1.938-.375 1.938-1 4l-2 1v-2h-3v-2c3-1 3-1 6-1"/><path fill="#3B7970" d="M1790 332h2c-1.074 2.915-1.778 4.778-4 7l-3-1a159 159 0 0 1 5-6"/><path fill="#3A7893" d="M1914 287h2c-.523 2.763-1.109 5.326-2 8h-2z"/><path fill="#EFB852" d="M278 194h2v3l2 1-1 3-3-1z"/><path fill="#8EB867" d="M1856 168c3 2 3 2 3.688 5.125L1860 176c-2-1-2-1-3-4l-3-2z"/></svg>